<?xml version="1.0" encoding="UTF-8"?>
<svg width="404px" height="176px" viewBox="0 0 404 176" version="1.1" xmlns="http://www.w3.org/2000/svg" xmlns:xlink="http://www.w3.org/1999/xlink">
    <!-- Generator: Sketch 51.2 (57519) - http://www.bohemiancoding.com/sketch -->
    <title>nscn-logo-white</title>
    <desc>Created with Sketch.</desc>
    <defs></defs>
    <g id="Moodboard" stroke="none" stroke-width="1" fill="none" fill-rule="evenodd">
        <g id="n-dots-logo" transform="translate(-250.000000, -557.000000)" fill="#FFFFFF">
            <g id="N-dots-white-logo-with-text" transform="translate(250.000000, 557.000000)">
                <g id="uppercase" stroke-width="1" transform="translate(218.000000, -2.000000)">
                    <path d="M20.916,10.368 L23.724,10.368 L23.724,36 L21.42,36 L5.94,15.372 L5.94,36 L3.168,36 L3.168,10.368 L5.436,10.368 L20.916,30.996 L20.916,10.368 Z M40.752,36.288 C38.3759881,36.288 36.3120088,35.7600053 34.56,34.704 C32.8079912,33.6479947 31.4580047,32.1300099 30.51,30.15 C29.5619953,28.1699901 29.088,25.8480133 29.088,23.184 C29.088,20.4959866 29.5559953,18.1680098 30.492,16.2 C31.4280047,14.2319902 32.7719912,12.7200053 34.524,11.664 C36.2760088,10.6079947 38.351988,10.08 40.752,10.08 C43.152012,10.08 45.2279912,10.6079947 46.98,11.664 C48.7320088,12.7200053 50.0759953,14.2319902 51.012,16.2 C51.9480047,18.1680098 52.416,20.4839867 52.416,23.148 C52.416,25.8360134 51.9420047,28.1639902 50.994,30.132 C50.0459953,32.1000098 48.6960088,33.6179947 46.944,34.686 C45.1919912,35.7540053 43.1280119,36.288 40.752,36.288 Z M40.752,33.768 C43.4640136,33.768 45.5759924,32.8440092 47.088,30.996 C48.6000076,29.1479908 49.356,26.5320169 49.356,23.148 C49.356,19.7639831 48.6060075,17.1600091 47.106,15.336 C45.6059925,13.5119909 43.4880137,12.6 40.752,12.6 C38.0159863,12.6 35.8920076,13.5179908 34.38,15.354 C32.8679924,17.1900092 32.112,19.7879832 32.112,23.148 C32.112,26.5320169 32.8679924,29.1479908 34.38,30.996 C35.8920076,32.8440092 38.0159863,33.768 40.752,33.768 Z M77.94,36 L74.808,36 L71.64,27.468 C71.2559981,26.4119947 70.7220034,25.7040018 70.038,25.344 C69.3539966,24.9839982 68.3880062,24.804 67.14,24.804 L60.732,24.804 L60.732,36 L57.816,36 L57.816,10.368 L68.004,10.368 C70.7640138,10.368 72.8819926,10.9799939 74.358,12.204 C75.8340074,13.4280061 76.572,15.1919885 76.572,17.496 C76.572,19.1760084 76.1340044,20.5859943 75.258,21.726 C74.3819956,22.8660057 73.1160083,23.6759976 71.46,24.156 C72.2040037,24.2760006 72.8399974,24.5939974 73.368,25.11 C73.8960026,25.6260026 74.3399982,26.3639952 74.7,27.324 L77.94,36 Z M67.752,22.356 C71.6880197,22.356 73.656,20.7480161 73.656,17.532 C73.656,15.9479921 73.1760048,14.7660039 72.216,13.986 C71.2559952,13.2059961 69.7680101,12.816 67.752,12.816 L60.732,12.816 L60.732,22.356 L67.752,22.356 Z M82.764,10.368 L91.368,10.368 C95.4720205,10.368 98.6459888,11.4779889 100.89,13.698 C103.134011,15.9180111 104.256,19.0679796 104.256,23.148 C104.256,27.2520205 103.134011,30.4199888 100.89,32.652 C98.6459888,34.8840112 95.4720205,36 91.368,36 L82.764,36 L82.764,10.368 Z M91.188,33.48 C94.5000166,33.48 96.9899917,32.6160086 98.658,30.888 C100.326008,29.1599914 101.16,26.5800172 101.16,23.148 C101.16,16.3079658 97.8360332,12.888 91.188,12.888 L85.716,12.888 L85.716,33.48 L91.188,33.48 Z M109.62,36 L109.62,10.368 L112.572,10.368 L112.572,36 L109.62,36 Z M129.852,36.288 C127.427988,36.288 125.322009,35.7600053 123.534,34.704 C121.745991,33.6479947 120.372005,32.1300099 119.412,30.15 C118.451995,28.1699901 117.972,25.8360134 117.972,23.148 C117.972,20.4599866 118.451995,18.1380098 119.412,16.182 C120.372005,14.2259902 121.745991,12.7200053 123.534,11.664 C125.322009,10.6079947 127.427988,10.08 129.852,10.08 C131.628009,10.08 133.253993,10.3499973 134.73,10.89 C136.206007,11.4300027 137.483995,12.2399946 138.564,13.32 L137.448,15.588 C136.223994,14.5319947 135.018006,13.7760023 133.83,13.32 C132.641994,12.8639977 131.328007,12.636 129.888,12.636 C127.079986,12.636 124.902008,13.5479909 123.354,15.372 C121.805992,17.1960091 121.032,19.7879832 121.032,23.148 C121.032,26.5320169 121.799992,29.1419908 123.336,30.978 C124.872008,32.8140092 127.055986,33.732 129.888,33.732 C131.328007,33.732 132.641994,33.5040023 133.83,33.048 C135.018006,32.5919977 136.223994,31.8360053 137.448,30.78 L138.564,33.048 C137.483995,34.1280054 136.206007,34.9379973 134.73,35.478 C133.253993,36.0180027 131.628009,36.288 129.852,36.288 Z" id="Nordic"></path>
                    <path d="M11.304,79.288 C7.29597996,79.288 4.10401188,78.2080108 1.728,76.048 L2.844,73.78 C4.11600636,74.8600054 5.4119934,75.6279977 6.732,76.084 C8.0520066,76.5400023 9.58799124,76.768 11.34,76.768 C13.4040103,76.768 14.9939944,76.366004 16.11,75.562 C17.2260056,74.757996 17.784,73.6240073 17.784,72.16 C17.784,71.2959957 17.5140027,70.5940027 16.974,70.054 C16.4339973,69.5139973 15.7260044,69.0880016 14.85,68.776 C13.9739956,68.4639984 12.8040073,68.1400017 11.34,67.804 C9.37199016,67.3719978 7.75200636,66.9040025 6.48,66.4 C5.20799364,65.8959975 4.17600396,65.1700047 3.384,64.222 C2.59199604,63.2739953 2.196,62.0320077 2.196,60.496 C2.196,59.0319927 2.57999616,57.7420056 3.348,56.626 C4.11600384,55.5099944 5.20199298,54.6400031 6.606,54.016 C8.01000702,53.3919969 9.64799064,53.08 11.52,53.08 C13.2960089,53.08 14.9519923,53.3559972 16.488,53.908 C18.0240077,54.4600028 19.3199947,55.2639947 20.376,56.32 L19.224,58.588 C18.023994,57.5559948 16.8060062,56.8000024 15.57,56.32 C14.3339938,55.8399976 12.9840073,55.6 11.52,55.6 C9.52799004,55.6 7.96800564,56.0259957 6.84,56.878 C5.71199436,57.7300043 5.148,58.8999926 5.148,60.388 C5.148,61.6840065 5.63999508,62.6559968 6.624,63.304 C7.60800492,63.9520032 9.1199898,64.5159976 11.16,64.996 C13.368011,65.5240026 15.1019937,66.0099978 16.362,66.454 C17.6220063,66.8980022 18.6719958,67.5699955 19.512,68.47 C20.3520042,69.3700045 20.772,70.5639926 20.772,72.052 C20.772,73.4920072 20.3880038,74.7579945 19.62,75.85 C18.8519962,76.9420055 17.7540071,77.787997 16.326,78.388 C14.8979929,78.988003 13.2240096,79.288 11.304,79.288 Z M47.376,53.368 L49.824,53.368 L49.824,79 L47.088,79 L47.088,59.956 L38.772,79 L36.684,79 L28.296,60.1 L28.332,79 L25.596,79 L25.596,53.368 L28.044,53.368 L37.764,75.472 L47.376,53.368 Z M75.744,79 L72.936,72.412 L59.544,72.412 L56.7,79 L53.64,79 L64.908,53.368 L67.5,53.368 L78.768,79 L75.744,79 Z M60.588,69.964 L71.892,69.964 L66.24,56.788 L60.588,69.964 Z M102.708,79 L99.576,79 L96.408,70.468 C96.0239981,69.4119947 95.4900034,68.7040018 94.806,68.344 C94.1219966,67.9839982 93.1560062,67.804 91.908,67.804 L85.5,67.804 L85.5,79 L82.584,79 L82.584,53.368 L92.772,53.368 C95.5320138,53.368 97.6499926,53.9799939 99.126,55.204 C100.602007,56.4280061 101.34,58.1919885 101.34,60.496 C101.34,62.1760084 100.902004,63.5859943 100.026,64.726 C99.1499956,65.8660057 97.8840083,66.6759976 96.228,67.156 C96.9720037,67.2760006 97.6079974,67.5939974 98.136,68.11 C98.6640026,68.6260026 99.1079982,69.3639952 99.468,70.324 L102.708,79 Z M92.52,65.356 C96.4560197,65.356 98.424,63.7480161 98.424,60.532 C98.424,58.9479921 97.9440048,57.7660039 96.984,56.986 C96.0239952,56.2059961 94.5360101,55.816 92.52,55.816 L85.5,55.816 L85.5,65.356 L92.52,65.356 Z M113.004,79 L113.004,55.888 L104.076,55.888 L104.076,53.368 L124.92,53.368 L124.92,55.888 L115.992,55.888 L115.992,79 L113.004,79 Z" id="Smart"></path>
                    <path d="M14.112,123.288 C11.6879879,123.288 9.58200894,122.760005 7.794,121.704 C6.00599106,120.647995 4.6320048,119.13001 3.672,117.15 C2.7119952,115.16999 2.232,112.836013 2.232,110.148 C2.232,107.459987 2.7119952,105.13801 3.672,103.182 C4.6320048,101.22599 6.00599106,99.7200053 7.794,98.664 C9.58200894,97.6079947 11.6879879,97.08 14.112,97.08 C15.8880089,97.08 17.5139926,97.3499973 18.99,97.89 C20.4660074,98.4300027 21.7439946,99.2399946 22.824,100.32 L21.708,102.588 C20.4839939,101.531995 19.2780059,100.776002 18.09,100.32 C16.9019941,99.8639977 15.5880072,99.636 14.148,99.636 C11.339986,99.636 9.16200774,100.547991 7.614,102.372 C6.06599226,104.196009 5.292,106.787983 5.292,110.148 C5.292,113.532017 6.05999232,116.141991 7.596,117.978 C9.13200768,119.814009 11.3159858,120.732 14.148,120.732 C15.5880072,120.732 16.9019941,120.504002 18.09,120.048 C19.2780059,119.591998 20.4839939,118.836005 21.708,117.78 L22.824,120.048 C21.7439946,121.128005 20.4660074,121.937997 18.99,122.478 C17.5139926,123.018003 15.8880089,123.288 14.112,123.288 Z M27.792,123 L27.792,97.368 L30.744,97.368 L30.744,123 L27.792,123 Z M43.272,123 L43.272,99.888 L34.344,99.888 L34.344,97.368 L55.188,97.368 L55.188,99.888 L46.26,99.888 L46.26,123 L43.272,123 Z M78.408,97.368 L68.328,112.632 L68.328,123 L65.376,123 L65.376,112.596 L55.296,97.368 L58.752,97.368 L66.888,109.968 L75.024,97.368 L78.408,97.368 Z" id="City"></path>
                    <path d="M20.916,142.368 L23.724,142.368 L23.724,168 L21.42,168 L5.94,147.372 L5.94,168 L3.168,168 L3.168,142.368 L5.436,142.368 L20.916,162.996 L20.916,142.368 Z M30.024,168 L30.024,142.368 L46.224,142.368 L46.224,144.816 L32.94,144.816 L32.94,153.744 L45.504,153.744 L45.504,156.228 L32.94,156.228 L32.94,165.552 L46.224,165.552 L46.224,168 L30.024,168 Z M56.952,168 L56.952,144.888 L48.024,144.888 L48.024,142.368 L68.868,142.368 L68.868,144.888 L59.94,144.888 L59.94,168 L56.952,168 Z M105.912,142.368 L108.828,142.368 L99.864,168 L97.344,168 L90.036,147.012 L82.692,168 L80.208,168 L71.208,142.368 L74.232,142.368 L81.504,163.788 L88.956,142.368 L91.224,142.404 L98.568,163.86 L105.912,142.368 Z M123.372,168.288 C120.995988,168.288 118.932009,167.760005 117.18,166.704 C115.427991,165.647995 114.078005,164.13001 113.13,162.15 C112.181995,160.16999 111.708,157.848013 111.708,155.184 C111.708,152.495987 112.175995,150.16801 113.112,148.2 C114.048005,146.23199 115.391991,144.720005 117.144,143.664 C118.896009,142.607995 120.971988,142.08 123.372,142.08 C125.772012,142.08 127.847991,142.607995 129.6,143.664 C131.352009,144.720005 132.695995,146.23199 133.632,148.2 C134.568005,150.16801 135.036,152.483987 135.036,155.148 C135.036,157.836013 134.562005,160.16399 133.614,162.132 C132.665995,164.10001 131.316009,165.617995 129.564,166.686 C127.811991,167.754005 125.748012,168.288 123.372,168.288 Z M123.372,165.768 C126.084014,165.768 128.195992,164.844009 129.708,162.996 C131.220008,161.147991 131.976,158.532017 131.976,155.148 C131.976,151.763983 131.226008,149.160009 129.726,147.336 C128.225992,145.511991 126.108014,144.6 123.372,144.6 C120.635986,144.6 118.512008,145.517991 117,147.354 C115.487992,149.190009 114.732,151.787983 114.732,155.148 C114.732,158.532017 115.487992,161.147991 117,162.996 C118.512008,164.844009 120.635986,165.768 123.372,165.768 Z M160.56,168 L157.428,168 L154.26,159.468 C153.875998,158.411995 153.342003,157.704002 152.658,157.344 C151.973997,156.983998 151.008006,156.804 149.76,156.804 L143.352,156.804 L143.352,168 L140.436,168 L140.436,142.368 L150.624,142.368 C153.384014,142.368 155.501993,142.979994 156.978,144.204 C158.454007,145.428006 159.192,147.191988 159.192,149.496 C159.192,151.176008 158.754004,152.585994 157.878,153.726 C157.001996,154.866006 155.736008,155.675998 154.08,156.156 C154.824004,156.276001 155.459997,156.593997 155.988,157.11 C156.516003,157.626003 156.959998,158.363995 157.32,159.324 L160.56,168 Z M150.372,154.356 C154.30802,154.356 156.276,152.748016 156.276,149.532 C156.276,147.947992 155.796005,146.766004 154.836,145.986 C153.875995,145.205996 152.38801,144.816 150.372,144.816 L143.352,144.816 L143.352,154.356 L150.372,154.356 Z M185.4,168 L181.548,168 L168.336,155.796 L168.336,168 L165.384,168 L165.384,142.368 L168.336,142.368 L168.336,154.14 L180.936,142.368 L184.716,142.368 L171.324,154.86 L185.4,168 Z" id="Network"></path>
                </g>
                <g id="N-dots-white">
                    <circle id="Oval-4" cx="18.5" cy="158.5" r="17.5"></circle>
                    <circle id="Oval-4-Copy-3" cx="17.5" cy="22.5" r="17.5"></circle>
                    <circle id="Oval-4-Copy-4" cx="75.5" cy="68.5" r="20.5"></circle>
                    <circle id="Oval-4-Copy-6" cx="177.5" cy="97.5" r="20.5"></circle>
                    <circle id="Oval-4-Copy-5" cx="177.5" cy="25.5" r="25.5"></circle>
                    <circle id="Oval-4-Copy" cx="17.5" cy="87.5" r="11.5"></circle>
                    <circle id="Oval-4-Copy-2" cx="126" cy="119" r="13"></circle>
                    <circle id="Oval-4-Copy-7" cx="177" cy="156" r="15"></circle>
                </g>
            </g>
        </g>
    </g>
</svg>