<svg width="102" height="50" viewBox="0 0 102 50" xmlns="http://www.w3.org/2000/svg">
  <title>
    site-logo
  </title>
  <g fill="#FFF" fill-rule="evenodd">
    <path d="M59.27 6.9h.64v5.83h-.52l-3.52-4.7v4.7h-.63V6.9h.52l3.51 4.69V6.9zm4.5 5.9c-.53 0-1-.13-1.4-.37-.4-.24-.7-.58-.92-1.03a3.63 3.63 0 0 1-.32-1.59c0-.6.1-1.14.32-1.58.21-.45.52-.8.91-1.03.4-.24.87-.36 1.42-.36.54 0 1.02.12 1.41.36.4.24.7.58.92 1.03.21.44.32.97.32 1.58 0 .6-.11 1.14-.33 1.58-.21.45-.52.8-.92 1.04s-.86.36-1.4.36zm0-.58c.62 0 1.1-.21 1.45-.63.34-.42.51-1.01.51-1.78s-.17-1.36-.5-1.78a1.76 1.76 0 0 0-1.45-.62c-.62 0-1.1.2-1.45.63-.34.41-.51 1-.51 1.77s.17 1.36.51 1.78c.34.42.83.63 1.45.63zm8.46.5h-.72l-.72-1.93c-.08-.24-.2-.4-.36-.48a1.44 1.44 0 0 0-.66-.13h-1.45v2.55h-.67V6.9h2.32c.63 0 1.1.14 1.44.42.34.28.5.68.5 1.2 0 .38-.1.7-.3.96-.2.26-.48.45-.86.56.17.02.32.1.44.21.12.12.22.29.3.5l.74 1.98zm-2.32-3.1c.9 0 1.34-.36 1.34-1.09 0-.36-.1-.63-.32-.8-.22-.18-.56-.27-1.02-.27h-1.6v2.17h1.6zm3.41-2.72h1.96c.93 0 1.65.25 2.16.76.5.5.76 1.22.76 2.15 0 .93-.25 1.65-.76 2.16-.51.5-1.23.76-2.16.76h-1.96V6.9zm1.92 5.25c.75 0 1.31-.2 1.7-.58.37-.4.56-.98.56-1.76 0-1.56-.75-2.34-2.26-2.34h-1.25v4.68h1.25zm4.18.58V6.9h.67v5.83h-.67zm4.6.06c-.55 0-1.03-.12-1.44-.36-.4-.24-.72-.58-.93-1.03a3.61 3.61 0 0 1-.33-1.6c0-.6.1-1.13.33-1.58.21-.44.53-.78.93-1.02s.89-.36 1.44-.36c.4 0 .77.06 1.1.18.34.12.63.3.88.55l-.26.52a2.48 2.48 0 0 0-1.72-.67c-.63 0-1.13.2-1.48.62-.35.41-.53 1-.53 1.77s.18 1.36.53 1.78c.35.41.84.62 1.49.62a2.48 2.48 0 0 0 1.71-.67l.26.52c-.25.24-.54.43-.87.55-.34.12-.7.18-1.11.18zM57.09 22.57a3.1 3.1 0 0 1-2.18-.74l.26-.52c.29.25.58.42.88.53.3.1.65.15 1.05.15.47 0 .83-.09 1.08-.27a.9.9 0 0 0 .38-.77c0-.2-.06-.36-.18-.48a1.27 1.27 0 0 0-.49-.3 7.4 7.4 0 0 0-.8-.21c-.44-.1-.8-.2-1.1-.32a1.72 1.72 0 0 1-.7-.5c-.18-.21-.27-.5-.27-.85 0-.33.09-.62.26-.87.18-.26.42-.46.74-.6a3.31 3.31 0 0 1 2.24-.02c.36.12.65.3.89.55l-.26.51a2.52 2.52 0 0 0-1.75-.68c-.45 0-.8.1-1.07.3a.95.95 0 0 0-.38.79c0 .3.11.52.34.66.22.15.56.28 1.03.39.5.12.9.23 1.18.33.28.1.52.25.71.46.2.2.29.47.29.81 0 .33-.09.62-.26.86-.18.25-.43.44-.75.58-.32.14-.7.2-1.14.2zm8.2-5.9h.55v5.83h-.62v-4.33l-1.9 4.33h-.47l-1.9-4.3v4.3h-.61v-5.83h.55l2.2 5.03 2.2-5.03zm6.44 5.83l-.64-1.5h-3.04l-.65 1.5h-.7l2.57-5.83h.58l2.56 5.83h-.68zm-3.45-2.05h2.57l-1.28-3-1.29 3zm9.57 2.05h-.7l-.73-1.94c-.09-.24-.2-.4-.36-.48a1.44 1.44 0 0 0-.66-.12h-1.46v2.54h-.66v-5.83h2.32c.62 0 1.1.14 1.44.42.33.28.5.68.5 1.2 0 .39-.1.7-.3.97-.2.26-.48.44-.86.55.17.03.31.1.43.22.12.11.22.28.3.5l.74 1.97zm-2.31-3.1c.9 0 1.34-.37 1.34-1.1 0-.36-.11-.63-.33-.8-.22-.18-.55-.27-1.01-.27h-1.6v2.17h1.6zm4.65 3.1v-5.25h-2.03v-.58h4.74v.58h-2.03v5.25h-.68zM57.73 32.57c-.55 0-1.03-.12-1.44-.36-.4-.24-.72-.59-.93-1.04a3.61 3.61 0 0 1-.33-1.6c0-.6.1-1.13.33-1.57.21-.45.53-.8.93-1.03a3.2 3.2 0 0 1 2.54-.18c.34.13.63.31.88.56l-.26.51a2.48 2.48 0 0 0-1.72-.67c-.63 0-1.13.2-1.48.62-.35.42-.53 1-.53 1.77s.18 1.36.53 1.78c.35.42.84.62 1.48.62a2.48 2.48 0 0 0 1.72-.67l.26.52c-.25.24-.54.43-.88.55-.33.12-.7.19-1.1.19zm3.1-.07v-5.83h.67v5.83h-.67zm3.52 0v-5.25h-2.03v-.58h4.74v.58h-2.03v5.25h-.68zm7.98-5.83l-2.29 3.47v2.36h-.67v-2.36l-2.29-3.47h.79l1.85 2.87 1.84-2.87h.77zM59.27 36.9h.64v5.83h-.52l-3.52-4.7v4.7h-.63V36.9h.52l3.51 4.69V36.9zm2.07 5.83V36.9h3.68v.56H62v2.03h2.86v.56H62v2.12h3.02v.56h-3.68zm6.12 0v-5.26h-2.03v-.57h4.74v.57h-2.03v5.26h-.68zm11.12-5.83h.66l-2.03 5.83h-.58l-1.66-4.77-1.66 4.77h-.57L70.7 36.9h.68l1.66 4.87 1.69-4.87.51.01 1.67 4.88 1.67-4.89zm3.97 5.9c-.54 0-1.01-.13-1.41-.37-.4-.24-.7-.58-.92-1.03a3.63 3.63 0 0 1-.32-1.59c0-.6.1-1.14.32-1.58.2-.45.51-.8.91-1.03.4-.24.87-.36 1.42-.36.54 0 1.01.12 1.41.36.4.24.7.58.92 1.03.21.44.32.97.32 1.58 0 .6-.11 1.14-.33 1.58-.21.45-.52.8-.92 1.04s-.86.36-1.4.36zm0-.58c.61 0 1.1-.21 1.44-.63.34-.42.51-1.01.51-1.78s-.17-1.36-.51-1.78a1.76 1.76 0 0 0-1.44-.62c-.63 0-1.1.2-1.45.63-.34.41-.52 1-.52 1.77s.18 1.36.52 1.78c.34.42.82.63 1.45.63zm8.44.5h-.7l-.73-1.93c-.08-.24-.2-.4-.36-.48a1.44 1.44 0 0 0-.66-.13h-1.46v2.55h-.66V36.9h2.32c.62 0 1.1.14 1.44.42.34.28.5.68.5 1.2 0 .38-.1.7-.3.96-.2.26-.48.45-.86.56.17.02.32.1.44.21.12.12.22.29.3.5l.73 1.98zm-2.31-3.1c.9 0 1.34-.36 1.34-1.09 0-.36-.1-.63-.33-.8-.21-.18-.55-.27-1.01-.27h-1.6v2.17h1.6zm7.96 3.1h-.88l-3-2.77v2.78h-.67V36.9h.67v2.68l2.86-2.68h.86l-3.04 2.84 3.2 2.99z"/>
    <g transform="translate(5 5)">
      <ellipse cx="4.19" cy="36.02" rx="3.97" ry="3.98"/>
      <ellipse cx="3.97" cy="5.11" rx="3.97" ry="3.98"/>
      <ellipse cx="17.11" cy="15.57" rx="4.65" ry="4.66"/>
      <ellipse cx="40.22" cy="22.16" rx="4.65" ry="4.66"/>
      <ellipse cx="40.22" cy="5.8" rx="5.78" ry="5.8"/>
      <ellipse cx="3.97" cy="19.89" rx="2.61" ry="2.61"/>
      <ellipse cx="28.55" cy="27.05" rx="2.95" ry="2.95"/>
      <ellipse cx="40.11" cy="35.45" rx="3.4" ry="3.41"/>
    </g>
  </g>
</svg>
