<?xml version="1.0" encoding="UTF-8"?>
<svg width="108px" height="91px" viewBox="0 0 108 91" version="1.1" xmlns="http://www.w3.org/2000/svg" xmlns:xlink="http://www.w3.org/1999/xlink">
    <!-- Generator: Sketch 50 (54983) - http://www.bohemiancoding.com/sketch -->
    <title>nscn-logo-white</title>
    <desc>Created with Sketch.</desc>
    <defs>
        <filter x="0.0%" y="0.0%" width="100.0%" height="100.0%" filterUnits="objectBoundingBox" id="filter-1">
            <feGaussianBlur stdDeviation="0" in="SourceGraphic"></feGaussianBlur>
        </filter>
    </defs>
    <g id="Website---desktop" stroke="none" stroke-width="1" fill="none" fill-rule="evenodd">
        <g id="Frontpage---desktop" transform="translate(-666.000000, -6008.000000)" fill="#FFFFFF">
            <g id="nscn-logo-white" transform="translate(666.000000, 6008.000000)">
                <g id="logo/element/nordics">
                    <g id="Group-5-Copy-6">
                        <path d="M15.6818109,58.666931 C15.357515,58.4427877 15.195367,58.330716 15.195367,58.330716 C15.195367,58.330716 14.3053998,58.6154928 14.3053998,58.9002695 C14.3053998,59.1850463 14.3053998,59.6976444 14.3053998,59.6976444 C14.3053998,59.6976444 14.6304341,59.6040387 15.0595196,59.3744005 C14.6587184,59.8395955 14.3053998,60.2631458 14.3053998,60.2631458 C15.0878136,60.6353441 15.5535362,61.1936416 15.7025674,61.9380383 L16.4290946,61.9380383 L16.8761882,62.1613573 L17.4350553,62.1613573 L18.2733558,62.887144 L18.2733558,61.2122515 C17.4164264,61.3611309 17.0624772,61.2308614 17.2115084,60.8214433 C17.4350553,60.207316 18.5527894,59.983997 18.5527894,59.983997 C18.9952354,59.0320075 19.5620403,58.5769464 20.253204,58.6188137 C20.1474112,58.7202918 20.0772003,58.8776201 20.0236873,59.1018039 C19.7224983,59.9429906 19.7977955,60.3635839 20.249579,60.3635839 C19.9107414,60.8606488 19.9107414,61.2238885 20.249579,61.4533031 C20.5884166,61.6827176 20.6637138,62.1606646 20.4754707,62.887144 L21.0402,62.0268394 C21.529632,62.0268394 21.9437669,61.8356606 22.2826044,61.4533031 C22.621442,61.0709455 22.7343879,60.5738806 22.621442,59.9621084 L23.0732254,59.3885721 L22.2826044,59.3885721 C22.621442,58.9870966 22.621442,58.6812105 22.2826044,58.4709138 C21.7743481,58.1554688 21.0966729,58.4709138 20.7013624,58.4709138 C20.6065861,58.4709138 20.5244809,58.4812927 20.4529374,58.5032797 L20.4529374,57.8624665 C21.0490622,58.3835442 21.3471246,58.5138136 21.3471246,58.2532748 C21.3471246,57.8624665 22.0177651,57.4716583 22.6884056,57.4716583 C23.359046,57.4716583 23.4149327,56.634212 23.4149327,56.2992335 C23.4149327,56.0759145 23.6012217,55.8153757 23.9737998,55.517617 L24.7562137,55.8525955 L23.9737998,56.2992335 C23.9737998,57.08085 24.0669443,57.2855591 24.2532333,56.9133608 C24.4395223,56.5411624 24.7189559,56.4481129 25.0915339,56.634212 L26.209268,56.2992335 C26.8053928,55.6292765 27.1034553,55.294298 27.1034553,55.294298 C26.4328148,55.294298 25.8180611,54.5405964 25.8180611,54.5405964 C26.0416079,52.61447 27.159342,52.167832 28.2211894,51.721194 C28.3200235,51.6796221 28.4145002,51.6286184 28.5046193,51.568183 C28.4219249,51.6264366 28.3034969,51.7199855 28.149335,51.8488298 C28.149335,52.1721892 28.149335,52.4073597 28.149335,52.5543412 C28.149335,52.7013228 28.149335,52.8042098 28.149335,52.8630025 C28.3657818,52.8630025 28.5281169,52.8630025 28.6363403,52.8630025 C28.7986753,52.8630025 28.8636094,52.8630025 29.2532136,52.5543412 C29.6428177,52.24568 29.5129497,52.1795383 29.5129497,52.1795383 C29.5129497,52.1795383 29.4696603,51.9517169 29.3830816,51.4960741 C28.9285434,51.4960741 28.6796296,51.4960741 28.6363403,51.4960741 C28.6199798,51.4960741 28.5866154,51.5128693 28.5362473,51.5464596 C29.0748037,51.1677222 29.4541358,50.4443505 29.6742437,49.3763445 L30.4566576,49.3763445 L30.4566576,48.7622173 C29.3389235,48.7622173 28.5937674,48.7622173 28.2211894,48.7622173 C27.6623223,48.7622173 27.2152287,49.1530255 25.8180611,49.8229825 C24.886616,50.2696205 24.3650067,50.1951809 24.2532333,49.5996635 L23.4149327,49.5996635 C22.9305813,49.3019049 22.6884056,49.1530255 22.6884056,49.1530255 C21.1794645,49.1530255 18.6645628,51.7770238 17.8262622,53.2285973 C17.2673952,54.1963129 16.4037991,55.070979 15.2354739,55.8525955 C15.5468696,56.5597724 15.7957119,56.9133608 15.9820009,56.9133608 C16.1670916,56.9133608 16.2295822,57.4032609 16.0882654,57.9125375 C15.99023,57.9746211 15.8574059,58.0416897 15.6897933,58.1137433 C15.6897933,58.2408498 15.7677393,58.3121103 15.9236314,58.327525 C15.862735,58.4411252 15.7893963,58.5486685 15.7025674,58.644083 C15.69569,58.6516405 15.6887702,58.6592572 15.6818102,58.6669305 Z M81.0296108,14.6140633 C81.0748061,14.5928085 81.1151306,14.5794651 81.1504648,14.5794651 C81.3240551,14.5794651 81.1504648,13.6777218 80.7598868,13.6777218 C80.3693087,13.6777218 79.7183452,13.6777218 79.3277672,13.6777218 C78.9371891,13.6777218 78.8069964,13.6777218 78.546611,13.6777218 C78.3730208,13.6777218 78.4308842,13.9783029 78.7202013,14.5794651 C78.937976,14.5794651 79.1301377,14.6745016 79.2966863,14.8645746 C78.944749,14.9461761 78.7738927,14.8172818 78.7738927,14.8172818 C78.7738927,14.8172818 78.7738927,14.4840207 78.4149665,14.6506512 C78.0560404,14.8172818 78.0284307,14.8172818 77.807553,14.8172818 C77.5866754,14.8172818 77.3105783,14.6228795 77.2001395,14.5117925 C77.0897007,14.4007055 76.9240425,14.2063032 76.7307745,14.5117925 C76.5375066,14.8172818 76.4822872,14.8172818 76.316629,14.8172818 C76.1509707,14.8172818 75.9024834,14.9839123 75.6263863,14.8172818 C75.3502893,14.6506512 75.0189728,14.6228795 75.0189728,14.5117925 C75.0189728,14.4377345 74.8717211,14.2711039 74.5772176,14.0119009 C74.4483723,13.7897269 74.2919173,13.6786399 74.1078526,13.6786399 C73.8317555,13.6786399 74.0802429,13.6786399 73.693707,13.6786399 C73.3071711,13.6786399 73.1691226,13.6508681 72.8101964,13.9008139 C72.4512703,14.1507597 71.9819053,14.5117925 71.9819053,14.5117925 C71.9819053,14.5117925 71.7886374,14.6506512 71.4573209,14.6506512 C71.2364433,14.6506512 70.8867203,14.6506512 70.4081521,14.6506512 L69.5246416,14.6506512 C69.3773898,14.5395642 69.2393413,14.5395642 69.110496,14.6506512 C68.9172281,14.8172818 68.7515698,15.0672276 68.7515698,15.0672276 C68.7515698,15.3727168 68.7239601,15.3449451 68.9172281,15.4838039 C69.110496,15.6226626 69.3865931,15.0394558 69.3865931,15.6226626 C69.3865931,16.2058695 69.2761542,16.2058695 68.9172281,16.2058695 C68.5583019,16.2058695 68.6687407,16.3169565 68.3374243,16.3169565 C68.0061078,16.3169565 67.4815234,16.4280435 67.1225973,16.5669023 C66.7636711,16.705761 66.5151838,16.6779893 66.1286479,16.8168481 C65.742112,16.9557068 65.93538,16.7613045 65.5764538,16.9557068 C65.2175276,17.1501091 65.3555762,16.9834786 64.6101141,17.1501091 C63.8646521,17.3167396 63.8646521,17.2611961 63.3952871,17.4833701 C62.9259221,17.7055442 63.0915804,18.1221205 62.4841669,18.4276098 C61.8767533,18.7330991 61.6558757,18.6497838 61.4073884,18.8719578 C61.158901,19.0941319 61.2141204,18.9552731 60.7171457,19.0941319 C60.2201711,19.2329906 60.1097322,19.2329906 59.7508061,19.3718494 C59.3918799,19.5107082 59.5299284,19.3440777 59.0881732,19.5107082 C58.6464179,19.6773387 58.729247,19.871741 58.3151014,19.871741 C57.9009559,19.871741 57.6524685,19.9272845 57.51442,20.0661433 C57.3763715,20.205002 57.1554938,20.4549478 57.1554938,20.6493501 C57.1554938,20.8437524 56.8517871,20.8715241 56.8517871,21.0103829 C56.8517871,21.1492417 56.8241774,21.5102745 56.4652512,21.5102745 C56.106325,21.5102745 56.0234959,21.5102745 55.7197892,21.8157638 C55.4160824,22.121253 55.6645698,21.8713073 55.1399854,22.121253 C54.615401,22.3711988 54.5601816,22.3989706 54.1736457,22.7877751 C53.7871098,23.1765797 53.5938419,23.5376125 53.4281837,23.5376125 C53.2625254,23.5376125 52.7931605,23.7875583 52.4894537,23.7875583 C52.185747,23.7875583 52.3790149,23.8431018 51.8820402,23.9541888 C51.3850655,24.0652758 50.9433102,23.926417 50.5567744,24.0652758 C50.1702385,24.2041346 50.0597997,24.0375041 49.5352153,24.2041346 C49.0106309,24.3707651 48.6517047,24.3152216 48.4032174,24.4818521 C48.1547301,24.6484826 47.7405845,24.7317979 47.2436098,24.8984284 C46.7466351,25.065059 46.7466351,25.1483742 46.3600992,25.2594612 C45.9735634,25.3705483 45.9735634,25.3427765 45.4765887,25.5371788 C44.979614,25.7315811 45.1176625,25.8982116 44.979614,25.8982116 C44.8875817,25.8982116 44.6575008,26.0463276 44.2893714,26.3425596 C44.234152,26.5091902 44.1421196,26.5925054 44.0132743,26.5925054 C43.8844291,26.5925054 43.5991288,26.5925054 43.1573735,26.5925054 C43.451877,26.3333024 43.5439094,26.2037009 43.4334705,26.2037009 C43.2678123,26.2037009 43.0745444,26.3425596 42.8812764,26.3425596 C42.7524312,26.3425596 42.54996,26.4258749 42.2738629,26.5925054 L41.4179621,26.7591359 L40.9485971,26.5925054 L40.9485971,27.0368535 C40.9117842,27.129426 40.8473615,27.1757123 40.7553292,27.1757123 C40.6172807,27.1757123 40.3135739,27.314571 40.3135739,27.1757123 C40.3135739,27.0831397 40.2675577,26.944281 40.1755254,26.7591359 L39.5681119,26.5925054 C39.4392666,26.5184474 39.3748439,26.4351321 39.3748439,26.3425596 C39.3748439,26.2037009 39.2091857,26.1203856 39.0435275,26.0092986 C38.9330887,25.9352406 38.7582272,25.8426681 38.5189431,25.7315811 C37.9299361,25.7686101 37.6354325,25.8241536 37.6354325,25.8982116 C37.6354325,26.0092986 37.5802131,26.3703314 37.7458714,26.4814184 C37.9115296,26.5925054 37.9943587,26.7591359 38.1600169,26.7591359 C38.2704557,26.7591359 38.3900978,26.796165 38.5189431,26.870223 C38.4637237,26.9998245 38.3900978,27.1016542 38.2980654,27.1757123 C38.1600169,27.2867993 37.8563102,27.2867993 37.7458714,27.2867993 C37.6354325,27.2867993 37.2765064,27.0368535 37.2765064,27.0368535 C37.2765064,27.0368535 37.1936773,26.9257665 36.9727996,26.7591359 C36.751922,26.5925054 36.7795317,26.5925054 36.5310443,26.5925054 C36.282557,26.5925054 35.9788502,26.6480489 35.9788502,26.7591359 C35.9788502,26.833194 36.0432729,27.0090817 36.1721182,27.2867993 C35.6015176,27.5089733 35.3162173,27.5645168 35.3162173,27.4534298 C35.3162173,27.2867993 35.3714367,27.1201687 34.9296815,27.2867993 C34.4879262,27.4534298 33.6044156,27.7033756 33.4663671,27.7033756 C33.3283186,27.7033756 33.6872447,27.7866908 32.9693924,27.9810931 C32.2515401,28.1754954 31.8650042,28.1754954 31.6441266,28.1754954 C31.423249,28.1754954 31.1471519,28.1754954 30.953884,28.1754954 C30.8250387,28.1754954 30.6225675,28.1754954 30.3464705,28.1754954 L31.229981,28.8142457 C30.9722904,28.8142457 30.797429,28.8142457 30.7053966,28.8142457 C30.5673481,28.8142457 30.4292996,29.1475068 30.0979831,29.1475068 C29.8771055,29.1475068 29.5733987,29.267851 29.1868629,29.5085396 L28.9935949,30.0639747 L28.9935949,30.480551 C28.6990914,30.2398624 28.4782138,30.1565472 28.330962,30.2306052 C28.1100844,30.3416922 27.861597,30.3416922 27.861597,30.480551 C27.861597,30.5731235 27.7879712,30.7675258 27.6407194,31.0637578 C27.7143453,31.1933593 27.7511582,31.3137036 27.7511582,31.4247906 C27.7511582,31.5914211 27.7511582,31.9246822 27.861597,32.1190844 C27.9720359,32.3134867 28.9107658,31.9246822 28.7451076,32.1190844 C28.6346688,32.248686 28.3861814,32.433831 27.9996456,32.6745195 C27.9260197,32.9707516 27.8063776,33.1188676 27.6407194,33.1188676 C27.3922321,33.1188676 27.2265738,33.0910958 27.2265738,32.9522371 C27.2265738,32.8133783 27.1437447,32.6745195 26.8952574,32.6745195 C26.64677,32.6745195 26.3430633,32.8133783 26.3430633,32.8133783 C26.3430633,32.8133783 26.0393565,32.9244653 26.0393565,33.1188676 C26.0393565,33.3132699 26.0393565,33.5632156 26.0393565,33.6743027 C26.0393565,33.7483607 26.3246568,33.9149912 26.8952574,34.1741942 L27.4474515,34.1741942 C27.6315162,34.2482522 27.7695647,34.2852813 27.861597,34.2852813 C27.9996456,34.2852813 28.330962,33.8409332 28.2205232,34.1741942 C28.1100844,34.5074553 28.054865,34.5074553 27.7511582,34.6740858 C27.4474515,34.8407163 27.4198418,34.8407163 27.2265738,34.8407163 C27.0977285,34.8407163 26.8584444,34.8407163 26.5087215,34.8407163 C26.3798762,34.7666583 26.2694374,34.8314591 26.177405,35.0351186 C26.0853727,35.2387781 25.8644951,35.4979812 25.5147721,35.8127277 C25.3491139,36.118217 25.2938945,36.2848475 25.155846,36.2848475 C25.0177974,36.2848475 24.8245295,36.4237063 24.7140907,36.118217 C24.6036519,35.8127277 24.217116,35.9515865 24.0514578,36.118217 C23.941019,36.229304 23.7569543,36.2848475 23.4992637,36.2848475 L23.1955569,35.9238147 C23.0667116,36.1645033 23.002289,36.3311338 23.002289,36.4237063 C23.002289,36.5625651 23.3888249,36.5903368 23.1955569,36.7291956 C23.0667116,36.8217681 22.9286631,36.9791414 22.7814114,37.2013154 C22.9286631,37.2013154 23.0667116,37.2013154 23.1955569,37.2013154 C23.3888249,37.2013154 23.7201413,37.0902284 23.8857995,36.9791414 C24.0514578,36.8680544 24.3827742,36.8958261 24.5484325,36.7291956 C24.7140907,36.5625651 24.8245295,36.5903368 24.8245295,36.7291956 C24.8245295,36.8217681 24.7877166,37.0346849 24.7140907,37.3679459 C24.6772777,37.4790329 24.530026,37.5808627 24.2723354,37.6734352 C23.8857995,37.812294 23.6925316,37.812294 23.4992637,37.923381 C23.3059957,38.034468 22.9746793,38.5621314 22.7814114,38.5621314 C22.6525661,38.5621314 22.376469,38.7380191 21.9531202,39.0897947 C21.7322426,39.0342512 21.5573811,39.0805374 21.4285358,39.2286534 C21.2352679,39.4508275 20.7659029,39.617458 20.7659029,39.728545 C20.7659029,39.839632 20.9039514,40.4506106 20.9039514,40.5894694 C20.9039514,40.7283282 20.9039514,41.0615892 20.9039514,41.200448 C20.9039514,41.3393067 21.0972194,41.5059373 21.0972194,41.7281113 C21.0972194,41.9502853 20.9039514,41.6725678 21.4285358,42.1724594 C21.7782587,42.5057204 22.0451526,42.7649234 22.2292173,42.9500685 C22.2292173,43.190757 22.2292173,43.3111013 22.2292173,43.3111013 C22.2292173,43.3111013 22.3396561,43.5055035 22.2292173,43.6999058 C22.1187784,43.8943081 22.0911687,44.0331669 22.2292173,44.2275691 C22.3672658,44.4219714 22.1187784,44.3108844 22.5605337,44.4219714 C22.8550372,44.4960294 23.1679472,44.5330584 23.4992637,44.5330584 C23.7569543,44.5515729 23.8857995,44.5978592 23.8857995,44.6719172 C23.8857995,44.7830042 24.2723354,44.810776 24.4103839,44.6719172 C24.5024163,44.5793447 24.6404648,44.4960294 24.8245295,44.4219714 C24.9533748,44.3479134 25.0638136,44.3479134 25.155846,44.4219714 C25.2938945,44.5330584 25.6528206,44.5330584 25.6528206,44.5330584 C25.6528206,44.5330584 25.9381209,44.4960294 26.5087215,44.4219714 C26.7664121,44.4960294 26.8952574,44.5330584 26.8952574,44.5330584 C26.8952574,44.5330584 27.0056962,44.4219714 27.2265738,44.4219714 C27.3738256,44.4219714 27.548687,44.2831127 27.7511582,44.0053951 L27.9996456,43.8943081 L28.4966202,43.8943081 C28.6622785,43.6536196 28.7451076,43.5332753 28.7451076,43.5332753 C28.7451076,43.5332753 29.0396111,43.4592173 29.6286181,43.3111013 L29.8494958,43.5332753 C30.1808122,43.3851593 30.3464705,43.3111013 30.3464705,43.3111013 C30.3464705,43.3111013 30.484519,43.1444707 30.5949578,43.1444707 C30.6685837,43.1444707 30.9262743,43.1444707 31.3680295,43.1444707 L31.8097848,43.1444707 C31.8465978,43.4036738 31.9018172,43.5332753 31.975443,43.5332753 C32.0490689,43.5332753 32.2331336,43.4962463 32.5276371,43.4221883 L32.9693924,43.3111013 C33.0430183,43.3296158 33.1626604,43.2740723 33.3283186,43.1444707 C33.4939768,43.0148692 33.6504318,42.9130395 33.7976836,42.8389814 C33.7608706,42.7834379 33.8621062,42.6908654 34.1013903,42.5612639 C34.4603165,42.3668616 34.6535844,42.1724594 34.6535844,42.1724594 C34.6535844,42.1724594 34.7088038,41.9780571 34.9296815,42.1724594 C35.1505591,42.3668616 35.3162173,42.4501769 35.3162173,42.5612639 C35.3162173,42.6723509 35.537095,42.7556662 35.537095,42.9500685 C35.537095,43.1444707 35.5647047,43.1444707 35.7027532,43.4221883 C35.8408017,43.6999058 35.9788502,43.8943081 35.9788502,44.0053951 C35.9788502,44.1164821 35.9788502,44.4219714 35.9788502,44.4219714 C35.9788502,44.4219714 35.8684114,44.4219714 35.7027532,44.6719172 C35.537095,44.921863 35.537095,45.2273523 35.3162173,45.3384393 C35.0953397,45.4495263 34.9849009,45.7272439 34.8192426,45.9494179 C34.6535844,46.1715919 34.598365,46.1993637 34.4879262,46.5326247 C34.3774874,46.8658858 34.4327068,46.6992552 34.2670485,47.0325163 C34.1013903,47.3657773 34.1013903,47.6546545 34.1013903,47.7601617 C34.1013903,47.8656689 33.7976836,48.0045277 33.7976836,48.1156147 C33.7976836,48.2267017 33.6044156,48.421104 33.6044156,48.5877345 C33.6044156,48.754365 34.0737806,48.6155063 33.6044156,49.5042024 C33.1350507,50.3928985 33.3007089,50.670616 33.1350507,50.670616 C32.9693924,50.670616 32.9693924,50.9483336 32.9693924,51.1705076 C32.9693924,51.3186236 32.9325795,51.5685694 32.8589536,51.920345 C32.8589536,52.327664 32.8589536,52.5683526 32.8589536,52.6424106 C32.8589536,52.7534976 32.8589536,52.8368129 32.8589536,53.1145304 C32.8589536,53.3922479 32.5276371,53.9754548 32.5276371,54.1143135 C32.5276371,54.2531723 32.3067595,54.5031181 32.3067595,54.8086074 C32.3067595,55.1140967 32.1963207,55.2251837 32.0858819,55.3918142 C32.012256,55.5029012 31.9202236,55.6232455 31.8097848,55.752847 C31.9938495,55.937992 32.0858819,56.1231371 32.0858819,56.3082821 C32.0858819,56.5859996 32.0858819,56.6970866 32.0858819,56.9192607 C32.0858819,57.0673767 32.0858819,57.2895507 32.0858819,57.5857828 L32.0858819,57.8912721 L32.5276371,58.0301308 C32.5276371,58.0856743 32.5276371,58.1967614 32.5276371,58.3633919 C32.5276371,58.5300224 32.4540113,58.7799682 32.3067595,59.1132292 C32.2331336,59.2058017 32.1595077,59.252088 32.0858819,59.252088 C32.012256,59.252088 31.8650042,59.252088 31.6441266,59.252088 C31.4416554,59.1595155 31.3036069,59.1132292 31.229981,59.1132292 C31.1563551,59.1132292 30.9814937,59.0762002 30.7053966,59.0021422 L30.953884,59.3909468 L31.0919325,59.9463818 L30.953884,60.3629582 C31.0275099,60.3629582 30.9446807,60.3629582 30.7053966,60.3629582 C30.3464705,60.3629582 30.484519,60.2240994 30.3464705,60.0852406 C30.2544381,59.9926681 30.0887799,59.8815811 29.8494958,59.7519796 C29.7758699,60.6591902 29.8218861,61.168339 29.9875443,61.279426 C29.9875443,61.279426 29.7666667,62.0292634 29.9875443,62.3069809 C29.9875443,62.3069809 29.9875443,63.6955686 29.7666667,63.9732862 C29.6591646,64.1084524 29.4731801,64.2501972 29.294658,64.4049243 C28.0743368,64.6491755 26.8746216,64.9013766 25.6964153,65.1612674 C25.6980994,65.1149744 25.6864373,65.0589657 25.6571532,64.9924502 C25.541286,64.7292706 25.2433419,64.4825397 24.7633207,64.2522576 C24.5812437,63.7258983 24.7302158,63.4627187 25.210237,63.4627187 C25.9302687,63.4627187 26.4764997,63.6847765 26.4764997,63.2406609 C26.4764997,62.7965453 26.0792408,62.7718722 26.1785555,62.451122 C26.2778703,62.1303718 26.84893,61.5135446 27.2213602,61.6862562 C27.5937904,61.8589679 27.5193044,62.2537373 27.7675912,62.2537373 C28.015878,62.2537373 28.4379656,62.2043911 28.4379656,61.3161599 C28.4379656,60.4279287 28.5372803,60.2798901 28.7855671,60.1565247 C29.033854,60.0331592 29.2821408,59.8111014 28.7855671,59.4656782 C28.2889935,59.1202549 28.090364,59.2436204 27.7675912,59.2436204 C27.4448183,59.2436204 26.923416,59.4410051 26.4764997,59.2436204 C26.1785555,59.1120305 25.90544,58.8077291 25.6571532,58.330716 C25.7895729,58.7912804 25.7895729,59.0955818 25.6571532,59.2436204 C25.4585238,59.4656782 24.8378067,59.5890436 24.4653765,59.4656782 C24.2170897,59.3834345 23.9522504,59.2436204 23.6708587,59.0462356 C24.0019078,59.3916589 24.08467,59.6630629 23.9191455,59.8604476 C23.7536209,60.0578323 23.6708587,60.255217 23.6708587,60.4526018 C23.5218866,60.9296148 23.3894669,61.1681214 23.2735998,61.1681214 C23.099799,61.1681214 22.7273688,61.9576602 23.099799,62.2537373 C23.4722292,62.5498144 23.9191455,62.5251413 23.9191455,63.0926223 C23.9191455,63.6601034 23.9191455,64.0795459 23.6708587,64.0795459 C23.4225719,64.0795459 22.6777114,64.2029114 22.5783967,64.5976808 C22.5121869,64.8608604 22.3301099,64.6388026 22.0321657,63.9315074 C21.9897353,63.6644654 21.8989645,63.5115123 21.7598534,63.472648 C21.9516889,63.2979059 22.1502964,63.0009207 22.1502964,62.5202328 C22.1502964,62.5202328 21.8828509,62.2372878 21.6451216,62.6819156 C21.4866354,62.9783342 21.1894737,63.2478056 20.7536366,63.4903298 C20.357421,63.7598012 20.0998809,64.0427462 19.9810162,64.3391647 C19.8027192,64.7837926 19.7135707,65.3496825 20.2484617,65.1071582 C20.3438887,64.8475536 20.5840249,64.5068983 20.8321933,64.2215277 C20.9968839,64.478534 21.4114486,64.9769032 21.4114486,65.4118928 C21.4114486,65.4118928 22.3549385,65.4118928 22.4790819,65.8560084 C22.4832223,65.8708204 22.4870865,65.8855226 22.4906976,65.9001003 C15.5690222,67.5661751 9.47424536,69.5079718 4.40966088,71.6669084 C2.15668882,65.8246917 0.922929018,59.4861094 0.922929018,52.8630025 C0.922929018,23.6722325 24.889074,0.0084378296 54.452812,0.0084378296 C84.0165501,0.0084378296 107.982695,23.6722325 107.982695,52.8630025 C107.982695,55.3911735 107.802924,57.8778865 107.455315,60.3113587 C99.9447305,59.767472 92.0826946,59.478623 83.9865406,59.478623 C72.2649656,59.478623 61.034128,60.0840828 50.6501051,61.1923938 C50.6681312,61.1642459 50.678576,61.1344397 50.678576,61.1009624 C50.678576,60.9788498 50.6229882,60.8078922 50.9287209,60.8078922 C51.2344535,60.8078922 51.2344535,60.7346246 51.4290106,60.612512 C51.6235678,60.4903994 51.7069494,60.612512 51.9015065,60.4903994 C52.0960637,60.3682868 52.3462086,60.4659769 52.3462086,60.3682868 C52.3462086,60.2705967 52.4851779,60.001949 52.7353228,59.8798364 C52.9854677,59.7577238 53.0132616,60.0263715 53.2912003,59.7577238 C53.5691391,59.4890761 53.5135514,59.4890761 53.4023759,59.391386 C53.2912003,59.293696 53.2912003,59.2692735 53.2912003,59.1227383 C53.2912003,58.9762032 53.1800248,58.9517807 53.2912003,58.8296681 C53.4023759,58.7075555 53.2634065,58.8052456 53.6803146,58.3656402 C54.0972228,57.9260349 54.1250166,57.9260349 54.3473676,57.9260349 C54.5697187,57.9260349 55.0978023,57.8527673 55.0978023,57.7306547 C55.0978023,57.6492464 55.1904486,57.4050212 55.3757411,56.9979792 C55.0978023,57.1445143 54.8847159,57.2177818 54.7364819,57.2177818 C54.5141309,57.2177818 54.2361921,57.1200918 54.2361921,57.1200918 C54.2361921,57.1200918 53.9582534,56.8758666 53.6803146,56.9979792 C53.4023759,57.1200918 52.7353228,57.3887395 52.7353228,57.3887395 C52.7353228,57.3887395 52.5685596,57.7306547 52.3462086,57.7306547 C52.1238575,57.7306547 51.9015065,57.9260349 51.790331,57.9260349 C51.6791555,57.9260349 51.56798,58.07257 51.4290106,58.07257 C51.2900413,58.07257 50.9287209,58.3167952 50.9287209,58.4877528 C50.9287209,58.6587105 50.9287209,58.8296681 50.9287209,58.9762032 C50.9287209,59.1227383 50.678576,59.0926172 50.678576,59.2420016 C50.678576,59.391386 50.4006372,59.0250483 50.4006372,59.7577238 C50.4006372,60.4903994 50.2616678,60.4171319 50.2616678,60.612512 C50.2616678,60.8078922 50.5396066,60.9544273 50.4006372,60.9544273 C50.3393968,60.9544273 50.0066594,60.937338 49.8725536,61.1009624 C49.846096,61.1332437 49.8349061,61.1929819 49.8389838,61.2801773 C47.9800102,61.4841481 46.1487103,61.7042871 44.3471536,61.9399979 C44.3628062,61.9221482 44.3787495,61.9039635 44.3949833,61.8854437 C44.5872602,61.6760621 44.7270979,61.50475 44.8144965,61.3715071 C44.9455944,61.1716429 45.2602293,60.7148105 45.4175467,60.5434983 C45.5748642,60.3721861 45.8632795,60.257978 45.8632795,60.1437699 C45.8632795,60.0676312 45.9681578,59.9058363 46.1779144,59.6583854 C46.1953941,59.6012813 46.265313,59.5251426 46.387671,59.4299692 C46.571208,59.287209 46.8071842,59.0302408 46.8071842,59.0302408 C46.8071842,59.0302408 47.0693799,58.6590644 47.0693799,58.6590644 C47.0693799,58.6590644 47.0693799,58.5734083 47.0693799,58.4020961 C46.9645016,58.3069227 46.877103,58.3069227 46.8071842,58.4020961 C46.7257921,58.5128868 46.5180696,58.6580696 46.4291173,58.7842638 C46.4283145,58.6141966 46.3500891,58.473906 46.194441,58.3633919 C45.881531,58.1412178 46.1300184,57.8820148 46.9399031,57.5857828 C46.9583095,57.1044057 47.289626,56.6785721 47.9338524,56.3082821 C48.0811042,56.2157096 48.1547301,55.8176478 48.1547301,55.1140967 C48.3572012,55.2992417 48.5228595,55.2992417 48.6517047,55.1140967 C48.78055,54.9289516 48.8449727,54.5216326 48.8449727,53.8921395 L49.7008735,53.8921395 C49.8481253,53.4477914 49.8481253,53.1885884 49.7008735,53.1145304 C49.4799959,53.0034434 50.3635064,53.0034434 50.6672132,53.0034434 C50.97092,53.0034434 51.3850655,53.1423021 51.6335529,53.0034434 C51.8820402,52.8645846 52.0753081,52.7534976 52.185747,52.6424106 C52.2961858,52.5313236 52.3237955,52.4202365 52.6827216,52.4202365 C53.0416478,52.4202365 53.1244769,52.4202365 53.2625254,52.4202365 C53.400574,52.4202365 53.3729643,52.5313236 53.5386225,52.6424106 C53.7042807,52.7534976 54.0355972,52.6424106 54.1736457,52.5313236 C54.3116942,52.4202365 54.4773525,52.4202365 54.615401,52.4202365 C54.7534495,52.4202365 54.9191077,52.2813778 55.1399854,52.2813778 C55.2872371,52.2813778 55.6093504,52.1610335 56.106325,51.920345 C56.456048,51.809258 56.6677224,51.6981709 56.7413483,51.5870839 C56.8149741,51.4759969 56.8517871,51.3001091 56.8517871,51.0594206 C56.7781612,50.9113046 56.7413483,50.7817031 56.7413483,50.670616 C56.7413483,50.559529 56.7781612,50.4299275 56.8517871,50.2818115 C57.4039812,50.15221 57.7537041,50.0874092 57.9009559,50.0874092 C58.1218335,50.0874092 58.7844664,49.8652352 58.7844664,49.7263764 C58.7844664,49.5875176 59.2538314,49.4764306 58.7844664,49.1153978 C58.3151014,48.754365 58.3151014,48.8099085 58.3151014,48.5877345 C58.3151014,48.3655605 58.729247,47.8656689 58.3151014,47.8656689 C57.9009559,47.8656689 57.9009559,47.8934407 57.9009559,47.6434949 C57.9009559,47.3935491 58.0113947,47.3380056 57.9009559,47.1713751 C57.790517,47.0047445 57.9009559,46.6714835 57.790517,46.5326247 C57.7168912,46.4400522 57.5788426,46.0790194 57.3763715,45.4495263 C57.3027456,45.2458668 57.2291197,45.107008 57.1554938,45.03295 C57.0818679,44.958892 56.9438194,44.921863 56.7413483,44.921863 L56.4652512,44.921863 L56.2719833,44.5330584 L56.106325,44.1164821 L55.8578377,43.8943081 L55.5541309,43.6999058 C55.3516598,43.4407028 55.3516598,43.3111013 55.5541309,43.3111013 C55.8578377,43.3111013 55.8578377,43.0611555 55.8578377,42.9500685 C55.8578377,42.8389814 55.9682765,42.8389814 55.8578377,42.6723509 C55.7473989,42.5057204 55.8578377,42.2002311 55.8578377,42.0613723 C55.8578377,41.9225136 55.9406668,42.4224051 56.106325,41.7281113 C56.2719833,41.0338174 56.1891542,41.0338174 56.4652512,40.7283282 C56.7413483,40.4228389 56.6309094,40.3395236 56.7413483,40.0895778 C56.8517871,39.839632 57.3763715,39.4508275 57.3763715,39.4508275 C57.3763715,39.4508275 57.51442,39.3304832 57.790517,39.0897947 C58.14024,39.0527657 58.3151014,38.9787077 58.3151014,38.8676206 C58.3151014,38.7009901 58.5635888,38.4510443 58.7844664,38.1733268 C59.005344,37.8956093 59.2538314,37.5068047 59.3918799,37.3679459 C59.5299284,37.2290872 59.5299284,37.4512612 59.5299284,36.8680544 C59.5299284,36.2848475 59.5299284,36.2848475 59.7508061,36.2848475 C59.9716837,36.2848475 59.8888546,36.4237063 60.2201711,36.4237063 C60.5514875,36.4237063 60.5790972,36.5625651 60.7171457,36.4237063 C60.8551943,36.2848475 61.0208525,36.3959345 61.158901,36.118217 C61.2969495,35.8404995 60.4962681,36.0626735 61.4073884,35.7016407 C62.3185086,35.3406079 62.3461183,35.3406079 62.4841669,35.3406079 C62.6222154,35.3406079 62.9259221,35.1462056 62.9259221,35.0351186 C62.9259221,34.9240316 63.2848483,34.6740858 63.3952871,34.6740858 C63.5057259,34.6740858 63.7542133,34.3963683 63.8646521,34.3963683 C63.9750909,34.3963683 63.9474812,33.9520202 64.6101141,34.1741942 C65.272747,34.3963683 65.4107956,34.3408248 65.5764538,34.1741942 C65.742112,34.0075637 65.8801605,34.1186507 66.1286479,34.0075637 C66.3771352,33.8964767 66.6532323,34.0075637 66.7636711,34.0075637 C66.8741099,34.0075637 67.0673778,34.1186507 67.4539137,34.0075637 C67.8404496,33.8964767 68.0613272,33.7853897 68.3374243,33.7853897 C68.6135213,33.7853897 68.6135213,33.6743027 68.9172281,33.6743027 C69.2209348,33.6743027 69.3313736,33.6187592 69.5246416,33.4799004 C69.7179095,33.3410416 69.8007386,33.1188676 69.9111774,33.1188676 C70.0216163,33.1188676 70.1872745,32.7856065 70.4081521,32.6745195 C70.6290298,32.5634325 70.794688,32.3134867 71.1260045,32.3134867 C71.4573209,32.3134867 71.8162471,32.3134867 71.8162471,32.0079974 C71.8162471,31.7025081 72.1751732,32.1190844 71.8162471,31.4247906 C71.4573209,30.7304968 71.2364433,30.6471815 71.4573209,30.3416922 C71.6781986,30.0362029 71.5953694,30.0917464 71.9819053,29.8973441 C72.3684412,29.7029419 72.7825867,29.5085396 72.948245,29.5085396 C73.1139032,29.5085396 73.0310741,29.3419091 73.3071711,29.1475068 C73.5832682,28.9531045 73.3900002,29.0919633 73.8317555,28.9531045 C74.2735108,28.8142457 74.2459011,28.675387 74.5772176,28.8142457 C74.908534,28.9531045 75.1846311,28.5087564 75.3502893,28.5087564 C75.5159475,28.5087564 75.5987766,28.1754954 75.9853125,28.1754954 C76.3718484,28.1754954 76.5651163,28.1754954 76.9240425,28.1754954 C77.2829686,28.1754954 77.4210171,27.9533214 77.807553,28.1754954 C78.1940889,28.3976694 78.3597471,28.2865824 78.5254053,28.6198435 C78.6910636,28.9531045 78.9671606,28.897561 79.1052091,29.1475068 C79.2432577,29.3974526 79.2984771,29.3141373 79.5745741,29.7584854 C79.8506712,30.2028334 80.1267682,30.480551 80.3200362,30.480551 C80.5133041,30.480551 80.706572,30.369464 80.5133041,30.8971273 C80.3200362,31.4247906 80.430475,31.4525624 80.3200362,31.7302799 C80.2095973,32.0079974 80.237207,32.1190844 79.9058906,32.1190844 C79.5745741,32.1190844 79.491745,32.1190844 79.2984771,32.3134867 C79.1052091,32.507889 78.9119412,32.7022913 78.7738927,32.8133783 C78.6358442,32.9244653 78.1664792,33.1466393 78.1664792,33.3132699 C78.1664792,33.4799004 78.0560404,33.5632156 77.807553,33.6743027 C77.5590657,33.7853897 76.9240425,34.1741942 76.9240425,34.1741942 C76.9240425,34.1741942 76.6755551,34.3963683 76.5375066,34.3963683 C76.3994581,34.3963683 76.1785804,34.5074553 75.8748737,34.6740858 C75.5711669,34.8407163 75.7920446,34.6463141 75.3502893,34.8407163 C74.908534,35.0351186 74.7428758,34.8407163 74.5772176,34.8407163 C74.4115593,34.8407163 74.2459011,34.6463141 74.1078526,34.8407163 C73.969804,35.0351186 73.693707,35.0906621 73.693707,35.3406079 C73.693707,35.5905537 73.6660973,35.4516949 73.41761,35.7016407 C73.1691226,35.9515865 73.1415129,35.8127277 72.948245,36.118217 C72.754977,36.4237063 72.5617091,36.5625651 72.4512703,36.5625651 C72.3408315,36.5625651 72.1475635,36.5625651 71.9819053,36.5625651 C71.8714665,36.5625651 71.7610277,36.414449 71.6505888,36.118217 C71.5585565,36.118217 71.4481177,36.118217 71.3192724,36.118217 C71.1260045,36.118217 70.9327365,36.118217 70.8222977,36.118217 C70.7118589,36.118217 70.4081521,35.7016407 70.4081521,35.7016407 C70.4081521,35.7016407 70.1044454,35.5072384 69.9111774,35.8127277 C69.7179095,36.118217 69.6626901,36.4237063 69.5246416,36.5625651 C69.3865931,36.7014238 69.2485445,36.8402826 69.2485445,36.9791414 C69.2485445,37.1180001 68.9172281,37.4512612 68.9172281,37.812294 C68.9172281,38.0529825 68.9172281,38.4047581 68.9172281,38.8676206 C68.8067893,39.4045412 68.7515698,39.7748313 68.7515698,39.9784908 C68.7515698,40.2839801 69.0828863,40.4506106 68.9172281,40.5894694 C68.7515698,40.7283282 68.5583019,40.8394152 68.5583019,41.0338174 C68.5583019,41.2282197 68.5583019,41.5059373 68.5583019,41.5059373 C68.5583019,41.5059373 68.6227246,41.6910823 68.7515698,42.0613723 C68.7515698,42.3205754 68.7515698,42.4872059 68.7515698,42.5612639 C68.7515698,42.6723509 68.5583019,42.9778402 68.5583019,43.1444707 C68.5583019,43.3111013 68.7791795,43.1722425 68.5583019,43.5332753 C68.3374243,43.8943081 68.365034,43.4777318 68.1993757,44.1164821 C68.0337175,44.7552325 67.8404496,44.7830042 67.8404496,45.03295 C67.8404496,45.2828958 67.7852302,45.2273523 67.6195719,45.4495263 C67.4539137,45.6717003 67.7852302,45.3662111 67.4539137,45.9494179 C67.1225973,46.5326247 67.2606458,46.3382224 67.0121584,46.7547987 C66.7636711,47.1713751 66.9017196,47.1991468 66.7636711,47.3657773 C66.6256226,47.5324079 66.5151838,47.6546545 66.3219158,47.7601617 C66.1286479,47.8656689 66.5980129,47.3380056 65.8801605,48.2267017 C65.1623082,49.1153978 64.527285,48.5044192 65.3279664,49.1153978 C66.1286479,49.7263764 66.3219158,49.8652352 66.3219158,49.8652352 C66.3219158,49.8652352 66.7636711,49.7819199 66.5427935,50.0874092 C66.3219158,50.3928985 66.1562576,50.2540397 66.0182091,50.3928985 C65.8801605,50.5317573 65.8249411,50.5317573 65.5764538,50.5317573 C65.3279664,50.5317573 64.9690403,50.3928985 64.9690403,50.5317573 C64.9690403,50.670616 64.8586015,51.0594206 64.9690403,51.0594206 C65.0794791,51.0594206 65.3831859,51.1705076 65.5764538,51.1705076 C65.7697217,51.1705076 66.1010382,51.1705076 66.3219158,51.1705076 C66.5427935,51.1705076 66.9845487,51.0594206 67.1225973,51.0594206 C67.2606458,51.0594206 67.3986943,50.8650183 67.6195719,50.8650183 C67.8404496,50.8650183 67.8404496,50.3928985 68.1993757,50.5317573 C68.5583019,50.670616 68.5859116,50.670616 68.7515698,50.670616 C68.9172281,50.670616 68.9724475,50.4762138 69.110496,50.670616 C69.2485445,50.8650183 69.3865931,50.9483336 69.2485445,51.0594206 C69.1565122,51.1334786 69.0460734,51.2445656 68.9172281,51.3926816 C68.9172281,51.6148557 68.9172281,51.7259427 68.9172281,51.7259427 C68.9172281,51.7259427 69.110496,51.7814862 69.110496,51.920345 C69.110496,52.0592037 69.7455192,52.031432 69.2485445,52.2813778 C68.7515698,52.5313236 68.5859116,52.5313236 68.7515698,52.6424106 C68.8620087,52.7164686 69.0736831,52.7534976 69.3865931,52.7534976 C69.5890642,52.6794396 69.7639257,52.6053816 69.9111774,52.5313236 C70.1320551,52.4202365 70.2424939,52.2813778 70.4081521,52.2813778 C70.5738104,52.2813778 71.1812239,52.1147473 71.3192724,52.1147473 C71.4113047,52.1147473 71.576963,52.1702908 71.8162471,52.2813778 C71.9266859,52.2998923 71.8714665,52.3832075 71.6505888,52.5313236 C71.3192724,52.7534976 71.070785,52.5035518 70.8222977,52.7534976 C70.6566395,52.9201281 70.5185909,53.0404724 70.4081521,53.1145304 C69.9295839,53.0960159 69.9295839,53.1515594 70.4081521,53.2811609 C71.1260045,53.4755632 71.0983947,53.2811609 71.4573209,53.2811609 C71.8162471,53.2811609 71.5125403,53.2811609 71.9819053,53.2811609 C72.4512703,53.2811609 72.6997576,53.1700739 72.948245,53.2811609 C73.1967323,53.3922479 73.1415129,53.3922479 73.41761,53.3922479 C73.693707,53.3922479 73.3347808,53.3922479 73.8317555,53.3922479 C74.3287302,53.3922479 74.3839496,53.3922479 74.5772176,53.3922479 C74.7704855,53.3922479 74.8533146,53.6977372 75.0189728,53.6977372 C75.1846311,53.6977372 75.7644349,53.8921395 75.8748737,53.6977372 C75.9853125,53.5033349 75.9300931,53.3922479 76.1509707,53.3922479 C76.3718484,53.3922479 76.3442387,53.5311067 76.5375066,53.5311067 C76.6663519,53.5311067 76.7951972,53.5311067 76.9240425,53.5311067 C77.2737654,53.6421937 77.5682689,53.6977372 77.807553,53.6977372 C78.1664792,53.6977372 78.8291121,53.6977372 78.9671606,53.6977372 C79.1052091,53.6977372 79.4089159,53.6977372 79.7954518,53.6977372 C80.1819876,53.6977372 80.9274497,53.8921395 81.1207176,53.8921395 C81.2495629,53.8921395 81.6545052,53.8921395 82.3355446,53.8921395 C82.979771,53.8921395 83.3571037,53.8921395 83.4675425,53.8921395 C83.6332007,53.8921395 84.074956,53.8921395 84.5167113,53.8921395 C84.9584666,53.8921395 85.7867577,53.6699655 85.8971965,53.5311067 C86.0076353,53.3922479 86.5598294,53.2256174 86.7807071,53.1145304 C87.0015847,53.0034434 87.0291944,53.0867586 87.3605109,52.7534976 C87.6918273,52.4202365 87.9679244,52.3091495 88.2440214,52.1147473 C88.5201185,51.920345 89.0723126,51.4759969 89.3760193,51.1705076 C89.6797261,50.8650183 89.7073358,50.8094748 89.9558231,50.670616 C90.2043105,50.5317573 90.4527978,50.004094 90.8669434,49.8652352 C91.281089,49.7263764 90.8669434,49.6152894 91.5295763,49.2542566 C92.1922092,48.8932238 92.4683063,48.7265933 92.7167936,48.4766475 C92.965281,48.2267017 93.4346459,47.4213208 93.710743,47.1713751 C93.98684,46.9214293 93.4898653,47.4490926 94.2353274,46.5326247 C94.9807894,45.6161568 94.7875215,45.6439286 94.9807894,45.3384393 C95.1740573,45.03295 95.9747388,45.3106675 95.1740573,44.2275691 C94.3733759,43.1444707 94.5390341,43.116699 94.2353274,42.9500685 C93.9316206,42.7834379 93.4622556,42.5334922 93.4622556,42.3668616 C93.4622556,42.2002311 93.4070362,42.1724594 93.1585489,41.9502853 C92.9100615,41.7281113 93.0205004,41.6170243 92.7167936,41.5059373 C92.4130869,41.3948502 92.7444033,41.3393067 92.4130869,41.0338174 C92.1922092,40.8301579 92.0081445,40.6264984 91.8608928,40.4228389 C91.713641,40.2747228 91.6400151,40.1636358 91.6400151,40.0895778 C91.6400151,39.9784908 91.5295763,39.839632 91.7504539,39.839632 C91.9713316,39.839632 91.9713316,40.0062626 92.1922092,39.728545 C92.4130869,39.4508275 92.7167936,39.3119687 92.7167936,39.0897947 C92.7167936,38.8676206 92.8548421,38.7009901 92.7167936,38.5621314 C92.5787451,38.4232726 92.6339645,38.3955008 92.4130869,38.1733268 C92.1922092,37.9511528 92.0541607,37.6734352 92.0541607,37.6734352 C92.0541607,37.6734352 91.6676248,37.3679459 91.5295763,37.3679459 C91.3915278,37.3679459 91.3915278,37.0902284 91.3915278,36.9791414 C91.3915278,36.8680544 91.3915278,36.7014238 91.3915278,36.5625651 C91.3915278,36.4237063 91.3915278,36.118217 91.3915278,36.118217 C91.3915278,36.118217 91.4743569,36.0349017 91.2534793,35.9238147 C91.0326016,35.8127277 91.3363084,36.0626735 90.8669434,35.7016407 C90.3975784,35.3406079 90.4251881,35.2295209 90.4251881,35.0351186 C90.4251881,34.8407163 90.4251881,34.8407163 90.4251881,34.5074553 C90.4251881,34.1741942 90.4251881,34.3408248 90.4251881,34.0075637 C90.4251881,33.6743027 90.2319202,33.8131614 90.4251881,33.1188676 C90.618456,32.4245737 90.5632366,32.618976 90.9773822,32.3134867 C91.3915278,32.0079974 91.5295763,32.0357692 91.3915278,31.7302799 C91.2994954,31.5266204 91.124634,31.3044463 90.8669434,31.0637578 C90.5724399,30.7675258 90.4251881,30.5268372 90.4251881,30.3416922 C90.4251881,30.0639747 90.4527978,30.2861487 90.2043105,29.8973441 C89.9558231,29.5085396 90.0386522,29.6751701 89.7625552,29.1475068 C89.4864581,28.6198435 89.596897,28.8420175 89.3760193,28.5087564 C89.1551417,28.1754954 89.3207999,28.2032671 89.1551417,27.9810931 C88.9894835,27.7589191 88.9894835,27.5922886 88.9894835,27.4534298 C88.9894835,27.314571 89.127532,27.1757123 89.3760193,26.870223 C89.6245067,26.5647337 89.8177746,26.4814184 89.9558231,26.3425596 C90.0938717,26.2037009 90.3147493,25.9537551 90.4251881,25.7315811 C90.5356269,25.509407 90.4251881,25.3150047 90.4251881,25.065059 C90.4251881,24.8151132 90.1490911,24.8706567 89.9558231,24.4818521 C89.7625552,24.0930476 89.3760193,24.0652758 89.3760193,23.9541888 C89.3760193,23.8431018 88.8790446,23.6764713 88.7133864,23.5376125 C88.5477282,23.3987537 88.38207,23.1765797 88.2440214,23.1765797 C88.1059729,23.1765797 87.7746564,23.1488079 87.7746564,22.6489164 C87.7746564,22.1490248 87.9679244,21.6491332 87.9679244,21.5102745 C87.9679244,21.3714157 88.5201185,21.0103829 88.5201185,21.0103829 C88.5201185,21.0103829 88.5477282,20.4271761 88.8514349,20.4271761 C89.1551417,20.4271761 89.5692873,20.4271761 89.7625552,20.4271761 C89.9558231,20.4271761 89.9834328,20.3716325 90.2043105,20.205002 C90.4251881,20.0383715 90.5908463,20.205002 90.7288949,20.205002 C90.8669434,20.205002 90.9773822,20.6493501 91.2534793,20.4271761 C91.5295763,20.205002 91.6400151,19.8439692 91.6400151,19.6773387 C91.6400151,19.5107082 91.3086987,19.6495669 91.087821,19.5107082 C90.8669434,19.3718494 90.6460657,19.5107082 90.4251881,19.3718494 C90.2043105,19.2329906 89.7625552,19.0941319 89.7625552,19.0941319 C89.7625552,19.0941319 89.1551417,18.8441861 89.1551417,18.7330991 C89.1551417,18.6220121 88.8238252,18.4276098 88.9894835,18.4276098 C89.1551417,18.4276098 89.5692873,18.399838 89.7625552,18.5664685 C89.9558231,18.7330991 89.9834328,18.8719578 90.2043105,18.8719578 C90.4251881,18.8719578 90.5632366,18.8719578 90.9773822,18.8719578 C91.3915278,18.8719578 91.7504539,18.7330991 91.7504539,18.7330991 C91.7504539,18.7330991 91.8608928,18.5664685 91.7504539,18.4276098 C91.6400151,18.288751 91.6400151,18.2332075 91.2534793,18.066577 C90.8669434,17.8999465 90.6460657,18.177664 90.4251881,17.8999465 C90.2043105,17.6222289 89.872994,17.4833701 89.7625552,17.3167396 C89.6521164,17.1501091 89.7625552,17.1501091 89.3760193,17.1501091 C89.1183287,17.1501091 88.8974511,17.0019931 88.7133864,16.705761 C88.4004764,16.705761 88.2440214,16.705761 88.2440214,16.705761 C88.2440214,16.705761 88.1611923,16.8168481 87.9679244,16.8168481 C87.7746564,16.8168481 87.6089982,17.1501091 87.3605109,16.8168481 C87.1120235,16.483587 87.1120235,16.3725 87.1120235,16.2058695 C87.1120235,16.0392389 87.2224624,15.4838039 87.1120235,15.4838039 C87.0015847,15.4838039 86.8635362,15.1783146 86.5322197,15.1783146 C86.2009033,15.1783146 85.8971965,15.011684 85.6210995,15.1783146 C85.3450024,15.3449451 85.1517345,15.8726084 85.1517345,15.8726084 C85.1517345,15.8726084 85.0597021,15.9374092 84.8756374,16.0670107 C84.8940439,15.8818657 84.8388245,15.6874634 84.7099792,15.4838039 C84.5811339,15.2801443 84.3786628,15.0579703 84.1025657,14.8172818 C84.4706951,14.7987673 84.4154757,14.7432238 83.9369075,14.6506512 C83.2190552,14.5117925 83.1914455,14.2063032 82.9981775,14.5117925 C82.8693322,14.715452 82.7128772,14.8172818 82.5288125,14.8172818 C82.3999672,14.6136222 82.3355446,14.5117925 82.3355446,14.5117925 C82.3355446,14.5117925 81.8937893,14.2063032 81.8937893,14.5117925 C81.8937893,14.8172818 81.7281311,14.9561405 81.7281311,15.0672276 C81.7281311,15.1783146 81.8109602,16.150326 81.3968146,15.4838039 C81.1196501,15.0377378 81.1269047,14.7533739 81.0296108,14.6140633 Z M44.9443876,60.1437699 C45.0091654,59.9895842 45.1076136,59.8488079 45.2557111,59.7519796 C45.3850549,59.6674126 45.5075819,59.5977022 45.6232921,59.5428482 C45.5831187,59.5756536 45.5494964,59.614166 45.522425,59.6583854 C45.4175467,59.8296976 45.3913271,60.1437699 45.1029118,60.1437699 C45.0507144,60.1437699 44.9978729,60.1437699 44.9443872,60.1437699 Z M25.2438354,65.2617126 C24.6031953,65.4047692 23.9690091,65.5501109 23.3414242,65.6976953 C23.4979792,65.5343276 23.6858663,65.4118928 23.9191455,65.4118928 C23.9191455,65.4118928 24.0184602,64.8545163 25.210237,65.2318969 C25.2205389,65.2425661 25.2318004,65.2525161 25.2438354,65.2617126 Z M21.2037402,63.8428876 C21.2138669,63.8709669 21.2251694,63.9005068 21.2376479,63.9315074 C21.189144,63.9315074 21.1443805,63.9326811 21.1033573,63.9350286 C21.1378728,63.9019032 21.1714772,63.8710464 21.2037402,63.8428876 Z M20.6152206,15.7902475 L19.7111269,15.3553157 L18.9200449,15.7902475 L19.7111269,16.5979779 L18.9200449,17.2814421 C18.9200449,18.2341498 19.2025742,18.7105036 19.7676327,18.7105036 C20.6152206,18.7105036 21.8018436,17.9649063 21.8018436,18.337705 C21.8018436,18.7105036 22.4234081,19.0833023 22.8754549,18.7105036 C23.1768195,18.4619712 23.9113957,18.337705 25.0791834,18.337705 C24.4011131,18.8761919 24.325772,19.1454354 24.85316,19.1454354 C25.380548,19.1454354 26.3599829,19.0004581 27.7914646,18.7105036 C29.2229463,18.4619712 30.0516989,18.0891725 30.2777224,17.5921076 C30.5037458,17.0950428 31.0311338,16.4944227 31.8598864,15.7902475 L32.7639801,15.3553157 L31.8598864,15.3553157 C32.6509684,14.7754067 32.8016507,14.4854522 32.3119333,14.4854522 C31.8222158,14.4854522 31.4078395,14.6511405 31.0688044,14.9825171 L29.8821814,14.4854522 L29.8821814,14.0505204 L29.4866404,13.801988 L28.3000173,13.801988 L27.4524295,13.5534556 C26.9250414,13.9676763 26.5860063,13.9676763 26.435324,13.5534556 C26.2846417,13.1392348 26.5295004,13.0356797 27.1699002,13.24279 C27.9609822,12.6214589 27.8668058,12.3107934 26.8873709,12.3107934 C25.907936,12.3107934 25.3052068,12.6214589 25.0791834,13.24279 C24.4764543,13.9055432 23.4781841,14.0090984 22.0843729,13.5534556 C22.0843729,13.5534556 22.8754549,14.2369198 22.8754549,14.9825171 C22.8754549,14.9825171 22.3669022,14.9825171 21.3497968,14.9825171 L20.6152206,15.7902475 Z M19.4391164,62.4446399 C19.2880885,62.3849685 19.1150647,62.5285523 18.9200449,62.8753912 C19.0932039,63.4907502 19.5085287,63.7984296 20.1660193,63.7984296 C20.1660193,63.7984296 20.4774622,63.6138219 20.1660193,63.3676784 C19.8545764,63.1215348 19.6122416,62.8753912 19.4391164,62.4446399 Z M63.6821022,47.2562672 C63.596177,46.9527424 63.4780298,46.7542838 63.3276607,46.6608916 C63.1021069,46.5208032 62.8765532,46.4157369 62.7476654,46.2406264 C62.6187775,46.065516 62.4898897,45.9954718 62.3610018,45.8203613 C62.232114,45.6452508 62.0387822,45.4701403 61.8776724,45.6452508 C61.7702659,45.7619911 61.5876748,45.8203613 61.3298991,45.8203613 C61.1795299,45.6802729 61.1043454,45.6802729 61.1043454,45.8203613 C61.1043454,46.0304939 60.9754575,46.6608916 60.9754575,46.6608916 C60.9754575,46.6608916 60.9754575,47.0811567 60.8465697,47.0811567 C60.7176818,47.0811567 60.4921281,47.2562672 60.4921281,47.3963556 C60.4921281,47.5364439 60.3310183,47.7115544 60.6532379,47.7115544 C60.9754575,47.7115544 60.9432356,47.3963556 61.3298991,47.7115544 C61.5876748,47.921687 61.7165626,48.1551676 61.7165626,48.4119963 C61.6977665,48.645477 61.7514697,48.7622173 61.8776724,48.7622173 C62.0669764,48.7622173 62.3610018,48.5871068 62.3610018,48.4119963 C62.3610018,48.2368858 62.3932238,47.9567091 62.7476654,47.9567091 C63.1021069,47.9567091 63.2954387,47.9567091 63.4887705,47.9567091 C63.6176583,47.9567091 63.6821022,47.7232285 63.6821022,47.2562672 Z M63.9560968,48.7622173 C63.4657907,48.9262487 63.2206377,49.0902801 63.2206377,49.2543115 C63.2206377,49.5003586 63.5883672,49.9924528 63.5883672,49.9924528 C63.5883672,49.9924528 64.2589329,50.3000117 64.4319821,49.9924528 C64.6050312,49.6848939 64.6050312,49.7464057 64.6050312,49.2543115 C64.6050312,48.9262487 64.3887198,48.7622173 63.9560968,48.7622173 Z M66.5126742,13.6777218 C66.1293497,13.6777218 65.8482451,14.1006153 65.5926955,14.1006153 C65.3371458,14.1006153 65.0815962,14.1006153 64.9282664,14.1006153 C64.8260466,14.1006153 64.6471618,14.16469 64.3916122,14.2928396 C64.0849526,14.2928396 63.8975495,14.2928396 63.829403,14.2928396 C63.7271831,14.2928396 63.5227434,14.4850639 63.5227434,14.4850639 C63.5227434,14.4850639 63.829403,14.0621704 63.829403,14.7541779 C63.829403,15.4461854 63.7016281,15.4461854 63.5227434,15.4461854 C63.3438587,15.4461854 63.4971884,15.5999648 63.1394189,15.5999648 C62.7816495,15.5999648 62.8327594,15.7537443 62.5516548,15.5999648 C62.2705502,15.4461854 62.3472151,15.4461854 62.0150005,15.4461854 C61.682786,15.4461854 61.6572311,15.292406 61.4527913,15.4461854 C61.2483516,15.5999648 61.2227967,15.3692957 60.9416921,15.5999648 C60.6605875,15.830634 60.3539279,16.0228583 60.4817027,16.0228583 C60.6094775,16.0228583 61.4527913,16.2919723 61.5550112,16.2919723 C61.6572311,16.2919723 61.8616708,16.2919723 62.0150005,16.2919723 C62.1683303,16.2919723 62.6283197,16.2919723 62.8838693,16.2919723 C63.1394189,16.2919723 63.2160838,16.5610864 63.5227434,16.2919723 C63.829403,16.0228583 63.6505182,16.0228583 64.1360625,16.0228583 C64.6216068,16.0228583 64.4682771,16.1381929 65.0304863,15.8690789 C65.5926955,15.5999648 66.0526848,15.7537443 66.2826795,15.5999648 C66.5126742,15.4461854 66.5382291,15.4461854 66.6915589,15.4461854 C66.8448887,15.4461854 67.1004383,15.0446502 66.6915589,15.0446502 C66.2826795,15.0446502 66.1549047,15.0446502 66.0526848,15.0446502 C65.950465,15.0446502 65.92491,14.6772882 66.0526848,14.4850639 C66.1804596,14.2928396 66.8959986,13.6777218 66.5126742,13.6777218 Z M23.6603923,57.0302869 C23.3320915,56.8677332 23.21328,57.0031946 23.3039577,57.436671 C22.9506393,57.7437168 22.7302067,57.9423934 22.6426598,58.032701 C22.555113,58.1230086 22.6536032,58.2223469 22.9381305,58.330716 C23.2226579,58.1320394 23.4196384,58.032701 23.529072,58.032701 C23.6385056,58.032701 23.7698259,57.9333627 23.9230329,57.734686 C24.07624,57.4276402 23.9886931,57.1928405 23.6603923,57.0302869 Z" id="nordic-map-copy" filter="url(#filter-1)"></path>
                    </g>
                </g>
                <text id="nscn" font-family="Muli-Regular, Muli" font-size="26" font-weight="normal">
                    <tspan x="26" y="90">nscn</tspan>
                </text>
            </g>
        </g>
    </g>
</svg>