<?xml version="1.0" encoding="UTF-8"?>
<svg width="670px" height="476px" viewBox="0 0 670 476" version="1.1" xmlns="http://www.w3.org/2000/svg" xmlns:xlink="http://www.w3.org/1999/xlink">
    <!-- Generator: Sketch 63.1 (92452) - https://sketch.com -->
    <title>nordic-countries-map</title>
    <desc>Created with Sketch.</desc>
    <defs>
        <filter x="0.0%" y="0.0%" width="100.0%" height="100.0%" filterUnits="objectBoundingBox" id="filter-1">
            <feGaussianBlur stdDeviation="0" in="SourceGraphic"></feGaussianBlur>
        </filter>
    </defs>
    <g id="nordic-countries-map" stroke="none" stroke-width="1" fill="none" fill-rule="evenodd">
        <path d="M154.925786,456.615385 C154.925786,459.87615 155.646123,463.655674 157.086797,467.953955 C157.567021,472.400454 157.086797,474.994244 155.646123,475.735327 C154.205449,476.476411 153.278349,475.661219 152.864822,473.289753 L152.864822,473.289753 L151.444158,469.732555 C150.803859,468.398605 150.643784,466.620006 150.963933,464.396757 C151.444158,461.061883 154.925786,456.615385 154.925786,456.615385 Z M482.147635,8.32937407 C485.11621,6.2367064 486.25797,6.46922503 489.454898,6.46922503 L489.454898,6.46922503 L492.880177,6.46922503 C494.402524,6.46922503 495.696518,7.39929955 496.762161,9.25944859 C499.197915,11.4296225 500.415792,12.8247342 500.415792,13.4447839 C500.415792,14.3748584 503.156016,14.6073771 505.439535,16.0024889 C507.723055,17.3976006 509.778223,16.0024889 511.148334,16.0024889 C512.518446,16.0024889 512.97515,16.0024889 514.573614,13.4447839 C516.172078,10.887079 517.54219,12.5147094 518.455597,13.4447839 C519.369005,14.3748584 521.652525,16.0024889 523.479341,16.0024889 C525.306156,16.0024889 525.534508,16.0024889 528.503084,14.6073771 C531.333586,13.2771542 531.465237,15.7519874 531.471361,15.9850822 L531.471659,16.0024889 C531.471659,16.0024889 534.211883,18.0951565 539.920682,14.6073771 C545.629481,11.1195976 544.259369,13.4447839 547.913001,13.4447839 C551.566632,13.4447839 549.739817,16.0024889 553.165096,21.582936 C556.590376,27.1633831 555.90532,19.025231 555.90532,18.0951565 C555.90532,17.165082 557.275431,16.0024889 557.275431,13.4447839 C557.275431,10.887079 560.929063,13.4447839 560.929063,13.4447839 C560.929063,13.4447839 561.461884,14.2973522 562.527527,16.0024889 C564.049873,16.0024889 565.343868,15.1499205 566.40951,13.4447839 C568.007974,10.887079 568.236326,13.4447839 574.173477,14.6073771 C578.131578,15.3824392 578.588282,15.8474764 575.543589,16.0024889 C577.827108,18.0176503 579.501689,19.8777994 580.567332,21.582936 C581.632974,23.2880726 582.089678,24.915703 581.937444,26.4658272 C583.45979,25.3807403 584.220963,24.8381968 584.220963,24.8381968 C584.220963,24.8381968 585.819427,20.4203428 588.102947,19.025231 C590.386466,17.6301193 592.898338,19.025231 595.638562,19.025231 C598.378785,19.025231 599.520545,21.582936 600.433953,21.582936 C601.347361,21.582936 600.433953,26.2333086 600.433953,27.6284203 C600.433953,29.0235321 600.433953,29.9536066 602.489121,32.7438302 C604.544288,35.5340538 605.9144,32.7438302 607.512864,32.7438302 C609.111328,32.7438302 609.796384,31.8137557 609.796384,31.8137557 L609.796384,31.8137557 L613.678367,31.8137557 C615.200713,34.2939544 617.027529,35.5340538 619.158814,35.5340538 C622.355742,35.5340538 621.442334,35.5340538 622.355742,36.9291655 C623.269149,38.3242773 626.009373,39.4868705 627.836189,41.8120568 C629.663005,44.1372431 631.48982,41.8120568 634.686748,43.2071686 C637.883675,44.6022803 637.883675,45.0673176 638.797083,46.2299107 C639.710491,47.3925039 638.797083,48.7876157 638.797083,48.7876157 C638.797083,48.7876157 635.828508,49.9502088 632.403228,49.9502088 L632.403228,49.9502088 L626.009373,49.9502088 C624.182557,49.9502088 623.954205,48.7876157 622.355742,47.3925039 C620.757278,45.9973921 617.331998,46.2299107 615.961887,46.2299107 C614.591775,46.2299107 617.331998,47.8575411 617.331998,48.7876157 C617.331998,49.7176902 622.355742,51.8103579 622.355742,51.8103579 C622.355742,51.8103579 626.009373,52.972951 627.836189,54.1355442 C629.663005,55.2981373 631.48982,54.1355442 633.316636,55.2981373 C635.143452,56.4607305 637.883675,55.2981373 637.883675,56.6932491 C637.883675,58.0883609 636.970267,61.1111031 634.686748,62.9712521 C632.403228,64.8314011 631.48982,61.1111031 630.34806,61.1111031 C629.206301,61.1111031 627.836189,59.7159913 626.009373,61.1111031 C624.182557,62.5062148 623.954205,62.9712521 622.355742,62.9712521 L622.355742,62.9712521 L614.820127,62.9712521 C612.308255,62.9712521 612.079903,67.8541433 612.079903,67.8541433 C612.079903,67.8541433 607.512864,70.8768855 607.512864,72.0394787 C607.512864,73.2020718 605.9144,77.3874071 605.9144,81.5727425 C605.9144,85.7580778 608.654624,85.9905965 609.796384,85.9905965 C610.938143,85.9905965 612.308255,87.8507455 613.678367,89.0133386 C615.048479,90.1759318 619.158814,91.5710436 619.158814,92.5011181 C619.158814,93.4311926 622.355742,93.6637112 623.954205,96.9189721 C625.552669,100.174233 627.836189,99.7091956 627.836189,101.801863 C627.836189,103.894531 628.749597,105.522161 627.836189,107.38231 C626.922781,109.242459 625.095965,111.335127 623.954205,112.49772 C622.812446,113.660313 621.213982,114.357869 619.158814,116.915574 C617.103646,119.473279 615.961887,120.635872 615.961887,121.798465 C615.961887,122.961059 615.961887,124.35617 617.331998,126.216319 C618.70211,128.076468 617.331998,127.84395 619.158814,130.634173 C620.98563,133.424397 620.072222,131.564248 622.355742,135.982102 C624.639261,140.399956 623.954205,139.004844 626.009373,142.260105 C628.064541,145.515366 627.836189,143.655217 627.836189,145.980403 C627.836189,147.530527 629.054066,149.545689 631.48982,152.025887 C633.621105,154.041049 635.067334,155.901198 635.828508,157.606334 C636.970267,160.164039 635.828508,159.931521 632.403228,162.489226 C628.977949,165.046931 629.434653,163.4193 627.836189,169.232266 C626.237725,175.045232 627.836189,173.882639 627.836189,176.672862 L627.836189,176.672862 L627.836189,185.276051 C627.836189,186.903682 627.607837,187.833756 631.48982,190.856499 C635.371804,193.879241 632.859932,191.786573 634.686748,192.716648 C636.513563,193.646722 635.828508,194.344278 635.828508,194.344278 L635.828508,194.344278 L635.828972,201.780491 C635.834772,202.814144 635.913082,204.807616 636.970267,204.807616 C638.112027,204.807616 641.308955,207.365321 641.308955,207.365321 C641.308955,207.365321 642.450715,209.690508 644.27753,211.550657 C646.104346,213.410806 645.647642,213.643324 646.789402,214.805917 C647.931162,215.968511 646.789402,217.363622 646.789402,219.223771 C646.789402,221.08392 644.27753,222.246514 642.450715,224.5717 C640.623899,226.896886 640.623899,225.501774 638.797083,225.501774 C636.970267,225.501774 637.883675,226.664368 637.883675,227.594442 C637.883675,228.214492 638.492614,229.144566 639.710491,230.384666 C640.928368,232.089802 642.450715,233.794939 644.27753,235.500075 C647.017754,238.05778 644.27753,238.522818 646.789402,239.452892 C649.301274,240.382967 648.387866,241.313041 650.443033,243.17319 C652.498201,245.033339 652.954905,245.265858 652.954905,246.66097 C652.954905,248.056081 656.836888,250.148749 659.34876,251.543861 C661.860632,252.938973 660.49052,253.171491 667.112727,262.239718 C673.734934,271.307944 667.112727,268.982758 665.514263,271.540463 C663.915799,274.098168 665.514263,273.865649 659.34876,281.538764 C653.183257,289.211879 657.293592,284.794025 655.010073,286.886693 C652.726553,288.97936 648.84457,295.722401 646.789402,297.815068 C644.734234,299.907736 642.450715,301.302848 636.970267,304.32559 C631.48982,307.348332 634.9151,308.278407 631.48982,309.441 C628.064541,310.603593 626.009373,315.021447 623.954205,316.18404 C621.899038,317.346633 621.670686,317.81167 619.158814,320.369375 C616.646943,322.92708 612.079903,326.647378 609.796384,328.275009 C607.512864,329.902639 605.229344,330.832714 602.489121,333.622937 C599.748897,336.413161 599.520545,335.715605 597.693729,336.645679 C595.866914,337.575754 591.299874,338.970866 590.386466,340.133459 C589.473059,341.296052 582.6225,343.156201 578.968868,343.156201 L578.968868,343.156201 L550.881576,343.156201 C549.283113,343.156201 543.11761,341.528571 539.920682,341.528571 L539.920682,341.528571 L523.479341,341.528571 C521.50029,341.528571 519.064536,341.063533 516.172078,340.133459 L516.172078,340.133459 L512.97515,340.133459 C511.376686,340.133459 511.605038,338.970866 509.778223,338.970866 C507.951407,338.970866 508.408111,339.90094 507.494703,341.528571 C506.581295,343.156201 501.785904,341.528571 500.415792,341.528571 C499.04568,341.528571 498.360624,338.970866 496.762161,338.970866 L496.762161,338.970866 L486.673257,338.97039 C484.944855,338.964913 485.180149,338.89646 483.289395,338.040791 C481.234227,337.110717 479.179059,338.040791 475.297076,338.040791 L475.297076,338.040791 L470.958389,338.040791 C467.989813,338.040791 468.218165,339.668422 462.281014,338.040791 C458.322913,336.955704 458.322913,336.490667 462.281014,336.645679 C463.194422,336.02563 464.336182,335.018049 465.706293,333.622937 C467.761461,331.53027 469.816629,333.622937 472.556852,331.762788 C474.383668,330.522689 474.840372,329.825133 473.926964,329.670121 C471.947914,328.740046 470.577802,328.275009 469.816629,328.275009 C468.674869,328.275009 463.651126,329.670121 462.281014,329.670121 C460.910902,329.670121 459.997494,330.832714 458.170679,331.762788 C456.952801,332.382838 455.506572,333.002888 453.831991,333.622937 C451.244002,333.622937 449.493304,333.312912 448.579896,332.692863 C447.209784,331.762788 448.579896,331.762788 452.690231,329.670121 C456.800567,327.577453 451.548472,327.809972 451.548472,326.647378 C451.548472,325.484785 449.950008,325.019748 449.950008,325.019748 L449.950008,325.019748 L449.950008,322.229524 C451.01565,320.989425 451.929058,320.059351 452.690231,319.439301 C453.831991,318.509226 452.690231,317.81167 451.548472,316.18404 C450.406712,314.55641 449.950008,316.18404 448.579896,316.18404 C447.209784,316.18404 446.981432,316.18404 444.012857,315.021447 C441.044281,313.858854 441.044281,317.81167 439.217465,317.81167 C437.39065,317.81167 436.24889,319.439301 435.10713,319.439301 C433.96537,319.439301 430.311739,320.369375 428.484923,320.369375 L428.484923,320.369375 L422.31942,320.369375 C420.720956,320.369375 418.209085,319.439301 417.295677,319.439301 C416.382269,319.439301 417.295677,316.18404 417.295677,315.021447 C417.295677,313.858854 420.264252,315.021447 422.31942,315.021447 C424.374588,315.021447 424.831292,315.021447 425.973051,313.858854 C427.114811,312.696261 428.484923,313.858854 430.311739,311.301149 C432.138554,308.743444 428.484923,309.441 428.484923,309.441 C428.431164,309.40182 426.777898,308.194547 420.264252,303.162997 C413.642045,298.047587 418.89414,303.162997 424.831292,295.722401 C430.768443,288.281804 426.886459,292.699658 428.484923,291.816301 C430.083387,290.932943 430.996795,289.909435 432.138554,288.514323 C433.280314,287.119211 432.138554,286.886693 434.193722,283.398913 C436.24889,279.911134 435.10713,281.538764 437.847354,276.655873 C440.587577,271.772982 437.847354,274.330687 439.217465,272.470538 C440.587577,270.610389 441.044281,271.075426 441.044281,268.982758 C441.044281,266.890091 442.642745,266.657572 444.012857,261.309643 C445.382968,255.961715 445.154616,259.449494 446.981432,256.426752 C448.808248,253.40401 446.981432,254.566603 446.981432,253.171491 C446.981432,251.77638 448.579896,249.218675 448.579896,248.2886 L448.579896,248.2886 L448.579896,244.103265 C447.585296,241.2097 447.054843,239.666465 446.988536,239.473561 L446.981432,239.452892 L446.981432,239.452892 L446.981432,235.500075 C446.981432,233.872445 448.579896,232.942371 449.950008,231.779777 C451.32012,230.617184 448.579896,229.222072 448.579896,226.664368 C448.579896,224.959231 449.0366,221.858983 449.950008,217.363622 L449.950008,217.363622 L449.950008,208.527914 C449.950008,205.505172 452.690231,202.714949 452.690231,201.552356 C452.690231,200.389762 453.831991,199.227169 454.973751,198.064576 C456.115511,196.901983 456.572215,194.344278 458.170679,191.786573 C459.769142,189.228868 462.281014,190.856499 462.281014,190.856499 C462.281014,190.856499 464.792886,194.344278 465.706293,194.344278 L465.706293,194.344278 L472.556852,194.344278 C473.47026,196.824477 474.383668,198.064576 475.297076,198.064576 L475.297076,198.064576 L479.179059,198.064576 C480.092467,198.064576 481.690931,196.901983 483.289395,194.344278 C484.887858,191.786573 485.11621,192.949166 487.171378,190.856499 C489.226546,188.763831 489.454898,189.926424 489.454898,187.833756 C489.454898,185.741089 491.738417,185.276051 492.880177,183.648421 C494.021937,182.020791 495.392049,183.648421 496.762161,183.648421 C498.132272,183.648421 499.502384,185.276051 503.156016,183.648421 C506.809647,182.020791 504.982831,183.648421 507.494703,182.253309 C510.006575,180.858197 511.83339,179.928123 512.97515,179.928123 C514.11691,179.928123 516.172078,178.067974 516.172078,178.067974 C516.172078,178.067974 521.424173,174.812713 523.479341,173.882639 C525.534508,172.952564 526.447916,172.255008 526.447916,170.859896 C526.447916,169.464785 530.3299,167.604636 531.471659,166.674561 C532.613419,165.744487 534.211883,164.116856 535.810347,162.489226 C537.408811,160.861595 538.093866,160.861595 540.83409,160.861595 C543.574314,160.861595 543.345962,159.931521 544.259369,157.606334 C545.172777,155.281148 544.259369,155.04863 545.857833,150.630776 C547.456297,146.212922 545.857833,147.142996 544.259369,147.142996 C542.660906,147.142996 540.377386,144.81781 538.093866,141.097512 C535.810347,137.377214 535.353643,138.07477 534.211883,135.982102 C533.070123,133.889434 530.786604,134.354471 529.416492,131.564248 C528.04638,128.774024 526.676268,129.704099 523.479341,127.84395 C520.282413,125.983801 519.140653,127.84395 516.172078,127.84395 L516.172078,127.84395 L508.408111,127.84395 C505.211183,127.84395 504.526127,130.634173 503.156016,130.634173 C501.785904,130.634173 499.502384,134.354471 496.762161,133.191878 C494.021937,132.029285 494.250289,133.191878 490.596658,134.354471 C486.943026,135.517065 488.54149,134.354471 486.25797,135.982102 C483.974451,137.609732 484.659506,139.004844 483.289395,139.004844 C481.919283,139.004844 478.494003,140.632474 475.297076,142.260105 C472.100148,143.887735 472.785204,143.422698 470.958389,145.980403 C469.131573,148.538108 470.958389,149.235664 473.926964,155.04863 C476.89554,160.861595 473.926964,157.373816 473.926964,159.931521 C473.926964,162.489226 470.958389,162.489226 468.218165,162.489226 C465.477941,162.489226 464.10783,164.581893 462.281014,165.511968 C460.454198,166.442042 459.084086,169.232266 458.170679,169.232266 C457.257271,169.232266 456.572215,171.092415 454.973751,172.255008 C453.375287,173.417601 452.461879,173.882639 449.950008,173.882639 C447.438136,173.882639 447.438136,174.812713 445.154616,174.812713 C442.871097,174.812713 441.044281,175.742788 437.847354,176.672862 C434.650426,177.602937 433.051962,176.672862 432.138554,176.672862 C431.225147,176.672862 428.941627,175.742788 426.886459,176.672862 C424.831292,177.602937 423.689532,176.672862 422.31942,178.067974 C420.949308,179.463086 419.807548,179.928123 414.327101,178.067974 C408.846654,176.207825 409.075006,179.928123 408.161598,179.928123 C407.24819,179.928123 405.193023,182.253309 404.279615,182.253309 C403.366207,182.253309 400.397631,184.345977 400.397631,185.276051 C400.397631,186.206126 397.88576,187.833756 396.744,187.833756 C395.60224,187.833756 395.373888,187.833756 387.838273,190.856499 L387.558872,190.968957 C380.469065,193.832819 386.910413,192.048524 385.783105,194.344278 C384.641346,196.669464 383.271234,195.73939 382.129474,196.901983 C380.987714,198.064576 380.759362,196.901983 378.019139,196.901983 C375.278915,196.901983 375.963971,195.73939 374.137155,195.73939 C372.419948,195.73939 372.316916,195.73939 372.310734,199.795041 L372.310107,201.415958 C372.306389,205.29679 372.243177,203.713411 371.16858,204.807616 C370.02682,205.970209 367.971652,209.22547 366.144836,211.550657 C364.318021,213.875843 362.262853,215.968511 362.262853,217.363622 L362.257694,217.458731 C362.161393,218.33609 360.716884,218.924437 357.924166,219.223771 C355.640646,221.238933 354.498886,222.246514 354.498886,222.246514 C354.498886,222.246514 350.160199,225.501774 349.246791,227.594442 C348.333383,229.68711 349.246791,230.384666 346.963271,232.942371 C344.679752,235.500075 345.364808,235.500075 343.994696,241.313041 C342.624584,247.126007 341.939528,242.940672 341.939528,244.103265 C341.939528,245.265858 341.02612,247.823563 341.939528,249.218675 C342.852936,250.613786 341.939528,250.613786 341.939528,251.543861 C341.939528,252.473935 341.939528,254.566603 339.427656,254.566603 C337.753075,254.566603 337.753075,255.65169 339.427656,257.821864 L339.427656,257.821864 L341.939528,259.449494 L343.994696,261.309643 L345.364808,264.797423 L346.963271,268.052684 L349.246791,268.052684 C350.921372,268.052684 352.063132,268.362708 352.67207,268.982758 C353.281009,269.602808 353.889948,270.765401 354.498886,272.470538 C356.173467,277.74096 357.315227,280.763702 357.924166,281.538764 C358.837574,282.701357 357.924166,285.491581 358.837574,286.886693 C359.750981,288.281804 358.837574,288.746842 358.837574,290.839509 C358.837574,292.932177 358.837574,292.699658 362.262853,292.699658 C365.688133,292.699658 362.262853,296.884994 362.262853,298.745143 C362.262853,300.605292 362.262853,300.140255 366.144836,303.162997 C370.02682,306.185739 366.144836,307.115813 366.144836,308.278407 C366.144836,309.441 360.664389,311.301149 358.837574,311.301149 C357.619696,311.301149 354.727238,311.843692 350.160199,312.928779 C349.55126,314.168879 349.246791,315.253966 349.246791,316.18404 C349.246791,317.114115 349.55126,318.199202 350.160199,319.439301 C350.160199,321.454462 349.85573,322.92708 349.246791,323.857155 C348.637852,324.787229 346.887154,325.717304 343.994696,326.647378 C339.88436,328.66254 337.220254,329.670121 336.002377,329.670121 C334.175561,329.670121 332.805449,330.832714 331.66369,330.832714 C330.52193,330.832714 329.151818,330.832714 328.010058,331.762788 C326.868298,332.692863 324.128075,333.622937 322.757963,332.692863 C321.387851,331.762788 321.616203,330.832714 320.474443,330.832714 L320.474443,330.832714 L315.679052,330.832714 C312.710477,330.832714 312.482125,331.762788 311.568717,332.692863 C310.655309,333.622937 309.056845,334.553012 307.001677,335.715605 C304.94651,336.878198 301.52123,335.715605 299.009359,335.715605 C296.497487,335.715605 289.190224,335.715605 291.01704,336.645679 C292.234917,337.265729 292.234917,339.435903 291.01704,343.156201 L291.01704,343.156201 L283.938129,343.156201 C283.938129,348.426623 283.405308,351.836897 282.339665,353.387021 C281.274023,354.937145 279.903911,354.937145 278.22933,353.387021 C278.22933,359.277493 277.620391,362.61026 276.402514,363.385322 C271.074302,366.48557 268.334078,370.050856 268.181843,374.081179 C261.483519,376.561378 259.428351,378.731551 262.01634,380.591701 C264.604329,382.45185 264.604329,385.319579 262.01634,389.19489 C259.885055,389.19489 257.297066,390.202471 254.252373,392.217632 C251.436139,394.081586 250.79067,397.890669 250.70966,400.537213 L252.449576,400.536654 C254.603917,400.536654 254.799766,397.938542 255.583163,396.52139 C256.105427,395.576622 256.954107,394.946776 258.129202,394.631854 C260.740524,392.427395 262.046185,390.931512 262.046185,390.144206 C262.046185,388.963246 264.396375,387.309902 265.179772,386.128942 C265.702036,385.341635 266.354867,385.341635 267.138264,386.128942 L267.138264,386.128942 L267.138264,388.25467 C267.138264,388.25467 265.179772,391.325166 265.179772,391.325166 C265.179772,391.325166 263.417129,393.450894 262.046185,394.631854 C261.132223,395.41916 260.609958,396.049006 260.479392,396.52139 C258.912599,398.568387 258.129202,399.906809 258.129202,400.536654 C258.129202,401.481422 255.974861,402.42619 254.799766,403.843342 C253.624671,405.260494 251.274481,409.039566 250.295235,410.69291 C249.642405,411.79514 248.597876,413.212292 247.161649,414.944366 C244.41976,418.408516 242.787684,420.455513 242.265419,421.085359 C241.482023,422.030127 240.306928,424.155855 239.131833,425.100623 C237.956738,426.045391 237.173341,428.879695 236.194095,428.879695 C235.541265,428.879695 234.36617,429.50954 232.66881,430.769231 C232.66881,428.564772 232.995226,426.675236 233.648056,425.100623 C234.627302,422.738703 234.627302,423.683471 235.410699,422.030127 C235.841952,421.119975 236.035804,419.708792 236.122942,418.269401 C234.13475,420.561264 231.957204,423.115915 229.590361,425.932833 C225.784495,429.498119 222.587568,433.063405 219.999579,436.62869 C216.117595,441.976619 212.235612,440.348988 212.235612,440.348988 C206.755165,436.62869 201.731421,439.186395 199.676254,435.698616 C197.621086,432.210836 187.801951,427.560464 183.919968,425.932833 C180.037985,424.305203 179.124577,429.653131 179.124577,431.280762 C179.124577,432.908392 176.841057,434.070985 175.242593,429.653131 C173.64413,425.235277 165.423459,431.280762 161.998179,432.908392 C159.71466,433.993479 157.583375,437.713777 155.604324,444.069286 C154.386447,449.959758 152.179045,453.835069 148.982117,455.695218 C144.186726,458.485442 141.674854,454.300106 141.674854,451.509883 C141.674854,448.719659 133.682536,448.254622 130.942312,448.254622 C128.202088,448.254622 121.579881,446.85951 119.753066,444.069286 C117.92625,441.279063 117.469546,438.953877 118.611306,435.698616 C119.753066,432.443355 124.320105,429.88565 126.146921,427.560464 C127.851949,425.39029 127.965617,415.118134 127.973195,413.758158 L127.973737,413.609346 C126.146921,411.28416 127.973737,405.006157 127.973737,405.006157 C126.603625,404.076082 126.223038,399.813241 126.831977,392.217632 C128.811027,393.302719 130.181139,394.232793 130.942312,395.007856 C132.084072,396.170449 130.942312,397.333042 133.910888,397.333042 L133.910888,397.333042 L135.966055,397.333042 L137.107815,393.845262 L135.966055,389.19489 L133.910888,385.939629 C136.194407,386.559679 137.640636,386.869704 138.249575,386.869704 C138.858514,386.869704 140.000273,387.257235 141.674854,388.032297 L141.674854,388.032297 L145.328486,388.032297 C145.937424,388.032297 146.546363,387.644766 147.155302,386.869704 C148.373179,384.07948 148.982117,381.986812 148.982117,380.591701 L148.982117,380.591701 L148.982117,377.801477 L145.328486,376.638884 L145.328486,363.385322 C145.328486,361.835198 144.567313,360.285074 143.044966,358.734949 C143.958374,357.649862 144.719547,356.642282 145.328486,355.712207 C146.241894,354.317095 147.155302,353.387021 147.155302,350.829316 C147.155302,348.271611 148.982117,346.178943 148.982117,345.01635 C148.982117,343.853757 151.722341,338.970866 151.722341,336.645679 L151.722341,336.645679 L151.722341,326.647378 C152.331279,323.702142 152.635749,321.609475 152.635749,320.369375 C152.635749,318.509226 152.635749,316.18404 154.005861,316.18404 C155.375972,316.18404 154.005861,313.858854 157.887844,306.418258 C161.769827,298.977661 157.887844,300.140255 157.887844,298.745143 C157.887844,297.350031 159.486308,295.722401 159.486308,294.792326 C159.486308,293.862252 161.998179,292.699658 161.998179,291.816301 C161.998179,290.932943 161.998179,288.514323 163.368291,285.7241 C164.738403,282.933876 164.281699,284.328988 165.195107,281.538764 C166.108515,278.748541 166.565219,278.516022 167.93533,276.655873 C169.305442,274.795724 170.21885,272.470538 172.045666,271.540463 C173.872482,270.610389 173.872482,268.052684 175.242593,265.960016 C176.521364,264.006859 177.402295,263.876649 177.51407,263.867968 L177.526113,263.867348 L177.526113,263.867348 L177.526113,260.379569 C177.526113,259.449494 176.384353,257.821864 175.242593,255.496678 C174.100834,253.171491 173.872482,253.171491 173.872482,251.543861 C173.872482,249.916231 172.045666,249.218675 172.045666,248.2886 C172.045666,247.358526 170.675554,246.66097 168.848738,245.033339 C167.021923,243.405709 166.565219,245.033339 166.565219,245.033339 C166.565219,245.033339 164.966755,246.66097 161.998179,248.2886 C160.019129,249.373687 159.181838,250.148749 159.486308,250.613786 C158.268431,251.233836 156.974436,252.086404 155.604324,253.171491 C154.234213,254.256578 153.244687,254.721616 152.635749,254.566603 L152.635749,254.566603 L148.982117,255.496678 C146.546363,256.116727 145.024017,256.426752 144.415078,256.426752 C143.806139,256.426752 143.349436,255.341665 143.044966,253.171491 L143.044966,253.171491 L132.99748,253.171491 C132.084072,253.171491 130.942312,254.566603 130.942312,254.566603 C130.942312,254.566603 129.5722,255.186653 126.831977,256.426752 L126.831977,256.426752 L125.005161,254.566603 C120.133652,255.806702 117.697898,256.426752 117.697898,256.426752 C117.697898,256.426752 117.012842,257.434333 115.64273,259.449494 L115.64273,259.449494 L111.532395,259.449494 L109.477227,260.379569 C107.802646,262.704755 106.356417,263.867348 105.13854,263.867348 C103.311724,263.867348 102.398316,264.797423 102.398316,264.797423 C102.398316,264.797423 101.332674,264.487398 99.2013889,263.867348 C94.4821149,264.487398 92.1224779,264.797423 92.1224779,264.797423 C92.1224779,264.797423 89.1539024,264.797423 88.0121426,263.867348 C87.2509693,263.247299 86.3375615,263.247299 85.271919,263.867348 C83.7495725,264.487398 82.6078127,265.184954 81.8466395,265.960016 C80.7048797,267.122609 77.5079522,266.890091 77.5079522,265.960016 C77.5079522,265.339966 76.4423097,264.952435 74.3110246,264.797423 C71.5708011,264.797423 68.9828121,264.487398 66.5470578,263.867348 C62.8934264,262.937274 64.9485941,263.867348 63.8068342,262.239718 C62.6650744,260.612088 62.8934264,259.449494 63.8068342,257.821864 C64.7202421,256.194234 63.8068342,254.566603 63.8068342,254.566603 L63.8068342,254.566603 L63.8068342,251.543861 C62.2844878,249.993737 60.0770855,247.823563 57.1846272,245.033339 C52.8459399,240.848004 54.4444036,243.17319 54.4444036,241.313041 C54.4444036,239.452892 52.8459399,238.05778 52.8459399,236.895187 L52.8459399,236.895187 L52.8459399,231.779777 C52.8459399,230.617184 51.7041801,225.501774 51.7041801,224.5717 C51.7041801,223.641625 55.5861635,222.246514 57.1846272,220.386365 C58.2502697,219.146265 59.6964989,218.758734 61.5233146,219.223771 C65.0247114,216.278535 67.308231,214.805917 68.3738735,214.805917 C69.9723373,214.805917 72.7125609,210.388063 74.3110246,209.457989 C75.9094884,208.527914 77.5079522,208.527914 80.7048797,207.365321 C82.8361647,206.590259 84.0540418,205.737691 84.3585111,204.807616 C84.9674497,202.017393 85.271919,200.23475 85.271919,199.459688 C85.271919,198.297095 84.3585111,198.064576 82.9883993,199.459688 C81.6182875,200.8548 78.8780639,200.622281 77.5079522,201.552356 C76.1378404,202.48243 73.3976168,203.412505 71.799153,203.412505 L71.799153,203.412505 L68.3738735,203.412505 C69.5917507,201.552356 70.7335105,200.23475 71.799153,199.459688 C73.3976168,198.297095 70.2006893,198.064576 70.2006893,196.901983 C70.2006893,196.126921 70.7335105,194.731809 71.799153,192.716648 L71.799153,192.716648 L74.3110246,195.73939 C76.4423097,195.73939 77.9646561,195.274353 78.8780639,194.344278 C80.2481757,192.949166 83.4451033,191.786573 84.3585111,194.344278 C85.271919,196.901983 86.8703827,195.73939 88.0121426,195.73939 C89.1539024,195.73939 89.6106063,194.344278 90.9807181,191.786573 C93.8731763,189.151362 95.6999921,186.981188 96.4611653,185.276051 C97.2223385,183.570915 98.1357464,183.028371 99.2013889,183.648421 L99.2013889,183.648421 L105.304728,183.648357 C106.756227,183.646642 107.055065,183.598596 109.477227,182.253309 C111.989099,180.858197 112.445803,180.858197 113.359211,178.067974 C114.272619,175.27775 111.532395,178.998048 110.390635,178.998048 C109.629462,178.998048 108.487702,178.688024 106.965356,178.067974 L106.965356,178.067974 L102.398316,178.067974 C97.6790424,175.8978 95.3194055,174.502688 95.3194055,173.882639 L95.3194055,173.882639 L95.3194055,169.232266 C95.3194055,167.604636 97.8312771,166.674561 97.8312771,166.674561 C97.8312771,166.674561 100.343149,165.511968 102.398316,165.511968 C104.453484,165.511968 105.13854,166.674561 105.13854,167.837154 C105.13854,168.999747 106.508652,169.232266 108.563819,169.232266 C109.933931,169.232266 110.923456,167.992167 111.532395,165.511968 C114.729323,163.496806 116.78449,161.946682 117.697898,160.861595 C119.06801,159.233965 111.304043,162.489226 110.390635,160.861595 C109.477227,159.233965 109.477227,156.443741 109.477227,155.04863 C109.477227,154.118555 109.172758,153.110974 108.563819,152.025887 C109.781697,149.545689 110.390635,147.918058 110.390635,147.142996 C110.390635,145.980403 112.445803,145.980403 114.272619,145.050328 C115.490496,144.430279 117.317311,145.127835 119.753066,147.142996 L119.753066,147.142996 L119.753066,143.655217 L121.35153,139.004844 C124.548457,136.989683 127.060329,135.982102 128.887144,135.982102 C131.627368,135.982102 132.769128,133.191878 133.910888,133.191878 L133.910888,133.191878 L138.249575,133.191878 L130.942312,127.84395 L130.942312,127.84395 L142.109587,127.843263 C143.996623,127.834794 147.143884,127.721878 152.635749,126.216319 C158.5729,124.588689 155.604324,123.891133 156.746084,123.891133 C157.887844,123.891133 165.195107,121.798465 168.848738,120.403354 C172.346896,119.067608 172.077091,120.289673 172.047795,121.620581 L172.045666,121.798465 C172.045666,122.72854 174.405303,122.263503 179.124577,120.403354 C178.058934,118.078167 177.526113,116.605549 177.526113,115.9855 C177.526113,115.055425 180.037985,114.590388 182.093152,114.590388 C184.14832,114.590388 183.919968,114.590388 185.746784,115.9855 C187.433075,117.273295 188.146506,118.164846 188.246287,118.294387 L188.258655,118.310686 C188.258655,118.310686 191.227231,120.403354 192.140639,120.403354 C193.054047,120.403354 195.565918,120.403354 196.707678,119.473279 C197.468851,118.853229 198.07779,118.000661 198.534494,116.915574 C197.468851,116.295525 196.479326,115.9855 195.565918,115.9855 C194.195806,115.9855 193.510751,114.590388 192.140639,113.660313 C190.770527,112.730239 191.227231,109.707497 191.227231,108.777422 C191.227231,108.157373 193.662985,107.692335 198.534494,107.38231 C200.513544,108.312385 201.959773,109.087447 202.873181,109.707497 C204.243293,110.637571 205.613405,111.335127 205.613405,112.49772 C205.613405,113.272782 206.146226,113.970338 207.211869,114.590388 L207.211869,114.590388 L212.235612,115.9855 C212.996785,117.535624 213.377372,118.698217 213.377372,119.473279 C213.377372,120.635872 215.889243,119.473279 217.031003,119.473279 C217.792176,119.473279 218.324997,119.085748 218.629467,118.310686 L218.629467,118.310686 L218.629467,114.590388 L222.51145,115.9855 L229.590361,114.590388 C231.873881,113.195276 233.548462,112.49772 234.614104,112.49772 C236.212568,112.49772 237.811032,111.335127 239.181144,111.335127 C240.094552,111.335127 239.333378,112.420214 236.897624,114.590388 L236.897624,114.590388 L243.976535,114.590388 C245.042177,114.590388 245.803351,113.892832 246.260055,112.49772 C249.304747,110.017522 251.207681,108.777422 251.968854,108.777422 C253.110614,108.777422 251.968854,107.38231 256.079189,105.75468 C260.189524,104.12705 260.189524,104.359568 263.386452,103.429494 C266.58338,102.499419 266.58338,101.801863 270.693715,100.406752 C274.80405,99.0116397 278.22933,98.3140838 280.284497,96.9189721 C282.339665,95.5238603 285.308241,95.9888975 289.646928,94.5937858 C293.985615,93.198674 294.899023,94.5937858 298.095951,93.4311926 C301.292878,92.2685995 304.94651,93.4311926 309.056845,92.5011181 C313.16718,91.5710436 311.568717,91.1060063 314.080588,91.1060063 C316.59246,91.1060063 320.474443,89.0133386 321.844555,89.0133386 C323.214667,89.0133386 324.813131,85.9905965 328.010058,82.7353356 C331.206986,79.4800748 331.66369,79.2475562 336.002377,77.1548885 C340.341064,75.0622208 338.285897,77.1548885 340.797768,74.5971836 C343.30964,72.0394787 343.994696,72.0394787 346.963271,72.0394787 C349.931847,72.0394787 350.160199,69.0167365 350.160199,67.8541433 C350.160199,66.6915502 352.67207,66.4590315 352.67207,64.8314011 C352.67207,63.2037707 354.498886,61.1111031 355.640646,59.9485099 C356.782406,58.7859168 358.837574,58.3208795 362.262853,58.3208795 C365.688133,58.3208795 365.003077,56.6932491 368.656708,55.2981373 C372.31034,53.9030255 371.16858,55.2981373 374.137155,54.1355442 C377.105731,52.972951 378.019139,52.972951 382.129474,51.8103579 C386.239809,50.6477647 385.783105,51.8103579 387.838273,49.9502088 C389.893441,48.0900598 391.720257,48.7876157 396.744,46.2299107 C401.767743,43.6722058 400.397631,40.1844264 404.279615,38.3242773 C408.161598,36.4641283 408.161598,36.9291655 414.327101,35.5340538 C420.492604,34.138942 419.350844,35.5340538 422.31942,33.9064234 C425.287995,32.2787929 423.689532,33.9064234 426.886459,32.7438302 C430.083387,31.5812371 432.138554,31.8137557 435.10713,30.6511625 C438.075706,29.4885694 442.414393,28.5584949 445.154616,28.5584949 C447.89484,28.5584949 446.981432,27.6284203 449.950008,27.6284203 C452.918583,27.6284203 453.831991,27.6284203 453.831991,22.7455291 C453.831991,17.8626379 451.548472,22.7455291 449.950008,21.582936 C448.351544,20.4203428 448.579896,20.6528615 448.579896,18.0951565 C448.579896,18.0951565 449.950008,16.0024889 451.548472,14.6073771 C452.614114,13.6773026 453.755874,13.6773026 454.973751,14.6073771 L454.973751,14.6073771 L470.958389,14.6073771 C473.698612,14.6073771 475.297076,13.4447839 475.297076,13.4447839 C475.473058,13.307867 479.246527,10.3744811 482.147635,8.32937407 Z M93.567863,385.538462 C95.6929231,389.67238 98.0304891,392.309534 100.580561,393.449926 C104.405669,395.160513 108.868295,393.449926 111.630873,393.449926 C114.393452,393.449926 116.0935,392.380809 120.34362,395.374336 C124.59374,398.367863 122.46868,400.292273 120.34362,401.36139 C118.21856,402.430507 117.368536,403.713447 117.368536,411.411087 C117.368536,419.108728 113.755934,419.536375 111.630873,419.536375 C109.505813,419.536375 110.143331,416.115201 106.955741,414.618438 C103.768151,413.121674 98.8805132,418.467258 98.0304891,421.246962 C97.1804651,424.026665 100.580561,424.240489 100.580561,428.089309 C100.580561,431.93813 95.9054291,430.013719 89.742755,430.013719 C85.6343055,430.013719 84.3592695,432.294502 85.9176469,436.856067 C90.0260963,438.851751 92.5761684,440.989985 93.567863,443.270767 C95.0554051,446.691941 91.230297,446.905764 89.742755,445.345874 C79.5424667,442.075396 78.6924427,446.905764 78.6924427,446.905764 C73.1672866,446.905764 70.6172145,455.031052 68.4921545,456.313992 C66.3670944,457.596932 67.4296244,454.603405 66.3670944,450.754585 C65.3432018,447.045722 57.8073525,446.910854 57.2606447,446.905949 L57.2293362,446.905764 C57.2293362,442.980457 53.3822109,438.459614 52.1083622,436.32487 C50.5870395,437.973259 49.262013,439.717675 48.6485836,441.125792 C44.153747,442.845428 44.9028864,438.832943 46.4011653,435.680276 C47.4000179,433.578499 49.5641985,431.572256 52.8937071,429.661549 C56.5561666,427.941913 59.0532981,426.031206 60.3851016,423.929428 C62.3828068,420.776761 64.6302251,422.783004 64.6302251,422.783004 C64.6302251,426.862977 62.238729,429.076474 60.4160919,430.170993 C61.4917841,430.59573 62.2001632,431.898063 62.5419863,434.076363 C65.0920584,440.205966 66.6504357,442.130376 67.2171184,439.849594 C68.0671424,436.42842 74.4423226,435.359303 76.5673826,435.359303 C78.6020146,435.359303 78.6885947,432.027086 78.692279,427.42704 L78.6924427,426.806369 C78.6924427,421.888432 74.8673346,422.102255 71.6797445,419.536375 C68.4921545,416.970495 71.6797445,410.128147 73.1672866,410.128147 C74.1589813,410.128147 75.2923466,408.061188 76.5673826,403.92727 C76.5673826,402.216683 77.275736,400.506096 78.6924427,398.79551 C80.1091494,397.084923 79.400796,394.732866 76.5673826,391.739339 C78.975784,393.449926 81.2425148,394.661591 83.3675748,395.374336 C86.5551649,396.443453 91.867815,395.374336 93.567863,393.449926 C94.7012284,392.166986 94.7012284,389.529831 93.567863,385.538462 Z M55.4027373,433.169496 L55.2591342,433.291498 C54.9496761,433.555352 54.6345106,433.834377 54.3176693,434.125178 C54.7399907,434.092734 55.2151308,434.076363 55.7417942,434.076363 C55.6144718,433.756084 55.5014528,433.453795 55.4027373,433.169496 Z M34.4694534,424.252136 C35.3799008,422.612611 36.1876602,421.933884 36.8927318,422.215953 C37.7009646,424.252136 38.8323012,425.415669 40.2862683,426.579202 C41.7402354,427.742735 40.2862683,428.615385 40.2862683,428.615385 C37.2167822,428.615385 35.2778439,427.160968 34.4694534,424.252136 Z M133.569132,305.846154 L133.569132,310.996656 L127.098655,310.996656 C125.864325,317.070456 124.024515,321.815208 121.579225,325.230911 L122.094134,325.230769 L122.094134,325.230769 C122.498326,327.384615 122.700422,328.461538 122.700422,328.461538 C122.700422,328.461538 123.306709,328.774194 121.487847,330.233251 C119.73635,331.638269 119.390376,331.690306 118.690418,331.692234 L116.334405,331.692308 L116.334405,331.692308 L116.335188,330.050106 C115.927339,330.275786 115.509627,330.47982 115.082055,330.662207 L114.266195,331.010125 C105.736001,334.651596 96.9999781,338.65345 95.2084469,354.307692 C95.2084469,354.307692 100.292393,360.628763 105.838516,360.628763 C105.838516,360.628763 103.373573,363.438127 98.4436854,369.056856 L89.2001469,371.866221 C86.1189674,370.305463 83.8080827,371.085842 82.267493,374.207358 C80.7269032,377.328874 79.9566083,375.61204 79.9566083,369.056856 L86.4270853,365.311037 L79.9566083,362.501672 C76.8754288,364.998885 75.3348391,367.183946 75.3348391,369.056856 C75.3348391,371.866221 74.8726621,378.889632 69.326539,378.889632 C63.7804159,378.889632 58.2342928,382.167224 58.2342928,385.444816 C58.2342928,385.531216 58.2304388,385.612491 58.222731,385.688641 C60.4451495,385.406309 62.7688751,385.427549 64.765813,386.598817 C67.4775707,388.189349 67.4775707,390.502851 64.765813,393.539322 L71.0932476,393.539322 L67.4775707,397.877138 C68.3814899,402.504142 67.4775707,406.263583 64.765813,409.15546 C62.0540553,412.047337 58.7396848,413.493276 54.8227014,413.493276 L50.3031053,420 C51.8096373,414.505433 51.2070245,410.890586 48.4952668,409.15546 C45.7835091,407.420334 45.7835091,404.67305 48.4952668,400.913609 C44.8795899,400.913609 44.276977,397.732544 46.6874283,391.370414 C46.9896915,390.173727 47.3585205,389.228912 47.8470474,388.506706 L47.8047727,388.508027 C42.7113681,388.812058 38.484926,392.629338 35.1254464,399.959866 C35.1254464,399.959866 25.8819079,401.832776 24.0332002,406.983278 C22.8007284,410.416945 25.7278489,411.509476 32.8145618,410.26087 L32.8145618,424.307692 L25.8819079,418.220736 L21.2601386,418.220736 L17.5627232,416.347826 L11.5544232,416.347826 C10.3219514,410.104794 6.47047697,405.42252 0,402.301003 C0,402.301003 6.9326539,393.87291 11.5544232,388.722408 C16.1761924,383.571906 16.1761924,374.207358 13.8653078,374.207358 C12.324718,374.207358 10.2668191,371.241918 7.6916111,365.311037 C17.353532,358.755853 24.4953771,351.42029 29.1171464,343.304348 C36.0498003,331.130435 56.847762,309.123746 69.326539,309.123746 C69.326539,309.123746 71.3293057,310.372352 75.3348391,312.869565 L82.267493,312.869565 C83.1918468,317.863991 87.5054981,318.488294 95.2084469,314.742475 C106.76287,309.123746 110.460285,305.846154 115.082055,305.846154 L133.569132,305.846154 L133.569132,305.846154 Z M326.53447,377.181677 C328.667569,376.314079 330.800668,377.89153 331.051391,378.085922 L331.075907,378.105249 C331.075907,378.105249 333.346625,378.844106 335.1632,378.844106 C336.37425,378.844106 338.115134,378.289963 340.385852,377.181677 C338.87204,380.260249 338.115134,382.107393 338.115134,382.723107 C338.115134,383.646679 333.800769,384.200822 331.984194,384.200822 C330.167619,384.200822 329.940548,384.200822 326.53447,387.52568 C323.128392,390.850538 324.263752,390.111681 323.355464,391.035252 C322.447177,391.958824 323.355464,392.143538 323.355464,393.251824 C323.355464,394.36011 323.355464,394.544825 324.263752,395.283682 C325.172039,396.02254 325.626183,396.02254 323.355464,398.054397 C321.084746,400.086255 320.857674,398.054397 318.814027,398.977969 C316.770381,399.901541 315.635022,401.933398 315.635022,402.672256 C315.635022,403.411113 313.591375,402.672256 312.001872,403.595827 C310.412369,404.519399 309.731154,403.595827 308.141651,404.519399 C306.552148,405.442971 306.552148,405.997114 304.054358,405.997114 C301.556568,405.997114 302.010711,407.290114 302.010711,408.213686 C302.010711,409.137258 300.875352,409.691401 299.739993,410.614972 C298.983087,411.230687 297.544965,411.476973 295.425628,411.35383 C295.05105,409.683496 295.05105,408.636782 295.425628,408.213686 C296.521253,406.976149 299.239668,407.1054 299.739993,407.1054 C300.875352,407.1054 298.604634,405.997114 298.604634,404.519399 C298.604634,403.041684 299.739993,403.595827 299.739993,398.054397 C299.739993,392.512967 302.010711,395.283682 302.010711,394.153846 C302.010711,393.02401 304.054358,393.251824 304.054358,392.143538 L304.054358,392.143538 L304.054358,388.449252 C304.054358,387.156251 307.006292,385.309108 308.141651,385.309108 C309.27701,385.309108 310.185298,384.200822 311.093585,384.200822 C312.001872,384.200822 313.818447,382.723107 315.635022,382.723107 C317.451596,382.723107 318.814027,380.137106 318.814027,380.137106 C318.814027,380.137106 324.263752,378.105249 326.53447,377.181677 Z M4.15480018,385.538462 C4.15480018,385.538462 4.92420763,386.076923 6.46302251,387.153846 C6.46302251,388.230769 5.69361507,389.217949 4.15480018,390.115385 C1.84657786,391.461538 0,392 0,392 L0,392 L0,388.230769 C0,386.884615 4.15480018,385.538462 4.15480018,385.538462 Z M50.8394619,382.167224 L50.8390938,386.687499 C51.2282589,386.627686 51.6509538,386.598817 52.1109437,386.598817 C53.1820092,386.598817 54.5120787,386.325371 55.9608563,386.056202 C54.7438278,385.4113 53.036405,384.114715 50.8394619,382.167224 Z M9.29059486,377.435897 C9.29059486,376.752137 10.5024116,376.752137 12.926045,377.435897 L12.926045,377.435897 L12.926045,382.358974 C10.5024116,383.042735 8.8193328,383.384615 7.87680868,383.384615 C6.93428457,383.384615 6.46302251,383.042735 6.46302251,382.358974 C8.34807074,381.538462 9.29059486,380.854701 9.29059486,380.307692 L9.29059486,380.307692 Z M75.9887689,377.237422 C77.5214367,378.005821 77.9301482,379.115731 77.2149032,380.567152 C76.4996582,381.506306 75.8865911,381.975884 75.3757018,381.975884 C74.8648125,381.975884 73.9452118,382.445461 72.6168997,383.384615 C71.2885876,382.872349 70.8287873,382.402772 71.2374987,381.975884 C71.6462101,381.548995 72.6752968,380.609841 74.3247588,379.15842 C73.9014311,377.109356 74.4561011,376.469023 75.9887689,377.237422 Z M406.295217,305.846154 C408.314912,305.846154 409.324759,306.621538 409.324759,308.172308 C409.324759,310.498462 409.324759,310.207692 408.516881,311.661538 C407.709003,313.115385 404.578477,311.661538 404.578477,311.661538 C404.578477,311.661538 402.861736,309.335385 402.861736,308.172308 C402.861736,307.396923 404.00623,306.621538 406.295217,305.846154 Z M397.038032,278.433927 C398.327413,277.014917 399.87467,278.433927 400.906175,279.852937 C401.93768,281.271947 402.969185,281.839551 404.00069,283.258562 C405.032194,284.677572 406.837328,285.528978 408.642461,286.664186 C409.845884,287.420991 410.79143,289.029203 411.4791,291.48882 C411.4791,295.272847 410.963347,297.164861 409.931842,297.164861 L409.931842,297.164861 L404.00069,297.164861 C401.164051,297.164861 400.906175,299.435277 400.906175,300.854287 C400.906175,302.273298 398.553055,303.692308 397.038032,303.692308 C396.028017,303.692308 395.598223,302.746301 395.748651,300.854287 C395.748651,298.773073 394.717146,296.881059 392.654136,295.178247 C389.559622,292.624029 389.817498,295.178247 387.238736,295.178247 C384.659974,295.178247 385.949355,293.759237 385.949355,292.624029 C385.949355,291.48882 387.754488,290.06981 388.785993,290.06981 C389.74109,290.06981 389.811838,287.150036 389.817079,286.717477 L389.817498,286.664186 C389.817498,286.664186 390.849003,281.555749 390.849003,279.852937 C390.849003,278.717729 391.450714,278.717729 392.654136,279.852937 C394.717146,279.852937 396.178445,279.379934 397.038032,278.433927 Z M97.6155158,98.6187066 C98.1142524,98.7719633 98.424014,99.218025 98.7980665,99.218025 C99.172119,99.218025 100.366147,100.036331 100.366147,100.157659 C100.366147,100.238545 100.32076,101.053785 100.229986,102.603381 L98.6605033,101.351784 L97.6155158,99.8447602 C97.2830246,98.92522 97.2830246,98.5165354 97.6155158,98.6187066 Z M98.3661474,95.6033809 L99.9389943,95.8570394 L101.366147,96.6033809 L100.681695,97.6033809 L99.5457826,96.7314465 L98.9091646,96.3643565 L98.3661474,95.6033809 Z M101.488596,88.6033809 L101.651862,89.4498095 L102.51519,90.1998095 L102.794719,89.2998095 L103.366147,89.4498095 L102.957984,90.7127238 L102.51519,91.0109902 L101.488596,90.7127238 L102.169431,91.2498095 L102.169431,91.7748095 L101.488596,91.6033809 L101.080433,91.6033809 L100.67227,91.0109902 L99.8281287,90.6926666 L101.080433,91.7748095 L100.381367,92.6105238 L100.135157,93.0605238 L99.2758156,92.9855238 L99.8889464,93.7248095 L100.509005,94.4533809 L100.135157,94.6033809 L98.5758243,93.7248095 L97.8793614,92.6105238 L97.2013502,93.7248095 L95.7743107,92.9855238 L95.3661474,92.0855238 L96.4562748,92.6105238 L97.2013502,92.0855238 L96.9292706,91.7748095 L96.9292706,90.6926666 L97.2013502,89.8248095 L97.7506521,90.1998095 L98.5758243,89.4498095 L99.0123807,89.8248095 L98.7895384,90.2748095 L99.8281287,90.1998095 L99.5606659,88.9075809 L99.8889464,88.9075809 L100.135157,89.8001238 L100.381367,88.9075809 L100.67227,89.8001238 L101.080433,89.2998095 L101.488596,88.6033809 Z M101.421091,0 C109.651552,0 110.442942,2.44755245 103.795262,7.34265734 C98.4138067,5.71095571 96.3561914,6.52680653 97.6224162,9.79020979 C98.888641,13.0536131 101.737647,13.0536131 106.169434,9.79020979 L106.169434,9.79020979 L113.291948,11.7482517 L123.263469,11.7482517 L126.587309,13.7062937 L126.587309,17.1328671 L136.558829,21.048951 C139.407835,18.4382284 142.889953,17.1328671 147.005184,17.1328671 C151.120415,17.1328671 149.85419,19.4172494 143.20651,23.986014 L143.20651,23.986014 L150.803859,23.986014 L143.20651,27.4125874 C136.242273,32.960373 131.810486,37.6923077 129.911149,41.6083916 C128.011812,45.5244755 121.047575,48.4615385 109.01844,50.4195804 C96.9893038,52.7039627 88.7588424,53.8461538 84.3270556,53.8461538 C79.8952687,53.8461538 80.5283811,51.7249417 86.2263928,47.4825175 C76.4131505,47.4825175 70.2403045,48.4615385 67.7078548,50.4195804 C63.9091804,53.3566434 58.686003,50.4195804 58.686003,47.4825175 C58.686003,44.5454545 48.7144826,50.4195804 41.591968,50.4195804 C36.8436249,50.4195804 34.4694534,46.6666667 34.4694534,39.1608392 L34.4694534,39.1608392 L41.1171337,33.7762238 L34.4694534,27.4125874 L41.1171337,23.986014 L48.7144826,27.4125874 L54.8873286,21.048951 L54.8873286,21.048951 L67.7078548,21.048951 C67.7078548,15.1748252 61.0601746,9.79020979 61.0601746,9.79020979 C72.7727541,13.3799534 81.1614935,12.5641026 86.2263928,7.34265734 C88.12573,2.44755245 93.1906293,0 101.421091,0 Z M434.132506,6.46153846 C437.200297,6.46153846 431.473753,10.8230769 430.451156,12.1860577 C429.428559,13.5490385 429.633078,16.1538462 430.451156,16.1538462 L430.451156,16.1538462 L435.564142,16.1538462 C438.836453,16.1538462 436.791258,19.0009615 435.564142,19.0009615 C434.337025,19.0009615 434.132506,19.0009615 432.291831,20.0913462 C430.451156,21.1817308 426.769806,20.0913462 422.270379,21.9995192 C417.770951,23.9076923 418.998068,23.0899038 415.112198,23.0899038 C411.226329,23.0899038 412.657965,23.0899038 410.203732,24.9980769 C407.749499,26.90625 407.13594,24.9980769 405.090746,24.9980769 L405.090746,24.9980769 L394.455735,24.9980769 C393.637658,24.9980769 386.888516,23.0899038 385.865919,23.0899038 C384.843322,23.0899038 387.297555,21.7269231 389.547269,20.0913462 C391.796983,18.4557692 392.001502,20.0913462 393.637658,19.0009615 C395.273813,17.9105769 395.478333,19.0009615 398.137085,19.0009615 C400.795838,19.0009615 400.18228,19.0009615 402.431993,20.0913462 C404.681707,21.1817308 404.272668,20.0913462 407.13594,20.0913462 C409.999212,20.0913462 408.772096,19.0009615 410.203732,19.0009615 C411.635368,19.0009615 412.657965,19.0009615 412.657965,14.0942308 C412.657965,11.6839069 412.065746,11.1811688 411.463138,11.2935203 L411.452,11.295 L411.559,11.232688 C411.905346,11.0319786 412.259221,10.8689022 412.541569,10.8312691 L412.657965,10.8230769 L412.657965,10.8230769 L417.157393,10.8230769 C419.202587,9.91442308 420.634223,9.46009615 421.452301,9.46009615 L421.452301,9.46009615 L426.769806,9.46009615 C428.815,9.46009615 431.064714,6.46153846 434.132506,6.46153846 Z M541.841914,6.46153846 C544.577027,6.46153846 545.792632,10.724124 544.577027,10.724124 C543.361421,10.724124 541.30241,12.246476 538.498999,12.246476 C535.695587,12.246476 533.636576,13.768828 531.813168,12.246476 C530.597562,11.2315747 529.179355,10.724124 527.558548,10.724124 C525.532538,7.88240032 525.127337,6.46153846 526.342942,6.46153846 L541.841914,6.46153846 L541.841914,6.46153846 Z" id="nordic-map-copy-2" fill="#FFFFFF" filter="url(#filter-1)"></path>
        <path d="M76.5,336 C80.6421356,336 84,339.475334 84,343.762376 C84,346.620404 81.5,353.366279 76.5,364 C71.5,353.366279 69,346.620404 69,343.762376 C69,339.475334 72.3578644,336 76.5,336 Z M76.5,338.153846 C73.5413317,338.153846 71.1428571,340.564621 71.1428571,343.538462 C71.1428571,346.512302 73.5413317,348.923077 76.5,348.923077 C79.4586683,348.923077 81.8571429,346.512302 81.8571429,343.538462 C81.8571429,340.564621 79.4586683,338.153846 76.5,338.153846 Z" id="Oval-Copy" fill="#C71D7D"></path>
        <path d="M88.5,342 C92.6421356,342 96,345.475334 96,349.762376 C96,352.620404 93.5,359.366279 88.5,370 C83.5,359.366279 81,352.620404 81,349.762376 C81,345.475334 84.3578644,342 88.5,342 Z M88.5,344.153846 C85.5413317,344.153846 83.1428571,346.564621 83.1428571,349.538462 C83.1428571,352.512302 85.5413317,354.923077 88.5,354.923077 C91.4586683,354.923077 93.8571429,352.512302 93.8571429,349.538462 C93.8571429,346.564621 91.4586683,344.153846 88.5,344.153846 Z" id="Oval-Copy-9" fill="#C71D7D"></path>
        <path d="M103.5,388 C107.642136,388 111,391.475334 111,395.762376 C111,398.620404 108.5,405.366279 103.5,416 C98.5,405.366279 96,398.620404 96,395.762376 C96,391.475334 99.3578644,388 103.5,388 Z M103.5,390.153846 C100.541332,390.153846 98.1428571,392.564621 98.1428571,395.538462 C98.1428571,398.512302 100.541332,400.923077 103.5,400.923077 C106.458668,400.923077 108.857143,398.512302 108.857143,395.538462 C108.857143,392.564621 106.458668,390.153846 103.5,390.153846 Z" id="Oval-Copy-2" fill="#C71D7D"></path>
        <path d="M112.5,381 C116.642136,381 120,384.475334 120,388.762376 C120,391.620404 117.5,398.366279 112.5,409 C107.5,398.366279 105,391.620404 105,388.762376 C105,384.475334 108.357864,381 112.5,381 Z M112.5,383.153846 C109.541332,383.153846 107.142857,385.564621 107.142857,388.538462 C107.142857,391.512302 109.541332,393.923077 112.5,393.923077 C115.458668,393.923077 117.857143,391.512302 117.857143,388.538462 C117.857143,385.564621 115.458668,383.153846 112.5,383.153846 Z" id="Oval-Copy-8" fill="#C71D7D"></path>
        <path d="M343.5,287 C347.642136,287 351,290.475334 351,294.762376 C351,297.620404 348.5,304.366279 343.5,315 C338.5,304.366279 336,297.620404 336,294.762376 C336,290.475334 339.357864,287 343.5,287 Z M343.5,289.153846 C340.541332,289.153846 338.142857,291.564621 338.142857,294.538462 C338.142857,297.512302 340.541332,299.923077 343.5,299.923077 C346.458668,299.923077 348.857143,297.512302 348.857143,294.538462 C348.857143,291.564621 346.458668,289.153846 343.5,289.153846 Z" id="Oval-Copy-2" fill="#C71D7D"></path>
        <path d="M129.5,399 C133.642136,399 137,402.475334 137,406.762376 C137,409.620404 134.5,416.366279 129.5,427 C124.5,416.366279 122,409.620404 122,406.762376 C122,402.475334 125.357864,399 129.5,399 Z M129.5,401.153846 C126.541332,401.153846 124.142857,403.564621 124.142857,406.538462 C124.142857,409.512302 126.541332,411.923077 129.5,411.923077 C132.458668,411.923077 134.857143,409.512302 134.857143,406.538462 C134.857143,403.564621 132.458668,401.153846 129.5,401.153846 Z" id="Oval-Copy-13" fill="#C71D7D"></path>
        <path d="M52.5,347 C56.6421356,347 60,350.475334 60,354.762376 C60,357.620404 57.5,364.366279 52.5,375 C47.5,364.366279 45,357.620404 45,354.762376 C45,350.475334 48.3578644,347 52.5,347 Z M52.5,349.153846 C49.5413317,349.153846 47.1428571,351.564621 47.1428571,354.538462 C47.1428571,357.512302 49.5413317,359.923077 52.5,359.923077 C55.4586683,359.923077 57.8571429,357.512302 57.8571429,354.538462 C57.8571429,351.564621 55.4586683,349.153846 52.5,349.153846 Z" id="Oval-Copy-2" fill="#C71D7D"></path>
        <path d="M479.5,250 C483.642136,250 487,253.475334 487,257.762376 C487,260.620404 484.5,267.366279 479.5,278 C474.5,267.366279 472,260.620404 472,257.762376 C472,253.475334 475.357864,250 479.5,250 Z M479.5,252.153846 C476.541332,252.153846 474.142857,254.564621 474.142857,257.538462 C474.142857,260.512302 476.541332,262.923077 479.5,262.923077 C482.458668,262.923077 484.857143,260.512302 484.857143,257.538462 C484.857143,254.564621 482.458668,252.153846 479.5,252.153846 Z" id="Oval-Copy-2" fill="#C71D7D"></path>
        <path d="M448.5,287 C452.642136,287 456,290.475334 456,294.762376 C456,297.620404 453.5,304.366279 448.5,315 C443.5,304.366279 441,297.620404 441,294.762376 C441,290.475334 444.357864,287 448.5,287 Z M448.5,289.153846 C445.541332,289.153846 443.142857,291.564621 443.142857,294.538462 C443.142857,297.512302 445.541332,299.923077 448.5,299.923077 C451.458668,299.923077 453.857143,297.512302 453.857143,294.538462 C453.857143,291.564621 451.458668,289.153846 448.5,289.153846 Z" id="Oval-Copy-10" fill="#C71D7D"></path>
        <path d="M494.5,308 C498.642136,308 502,311.475334 502,315.762376 C502,318.620404 499.5,325.366279 494.5,336 C489.5,325.366279 487,318.620404 487,315.762376 C487,311.475334 490.357864,308 494.5,308 Z M494.5,310.153846 C491.541332,310.153846 489.142857,312.564621 489.142857,315.538462 C489.142857,318.512302 491.541332,320.923077 494.5,320.923077 C497.458668,320.923077 499.857143,318.512302 499.857143,315.538462 C499.857143,312.564621 497.458668,310.153846 494.5,310.153846 Z" id="Oval-Copy-7" fill="#C71D7D"></path>
        <path d="M483.5,301 C487.642136,301 491,304.475334 491,308.762376 C491,311.620404 488.5,318.366279 483.5,329 C478.5,318.366279 476,311.620404 476,308.762376 C476,304.475334 479.357864,301 483.5,301 Z M483.5,303.153846 C480.541332,303.153846 478.142857,305.564621 478.142857,308.538462 C478.142857,311.512302 480.541332,313.923077 483.5,313.923077 C486.458668,313.923077 488.857143,311.512302 488.857143,308.538462 C488.857143,305.564621 486.458668,303.153846 483.5,303.153846 Z" id="Oval-Copy-11" fill="#C71D7D"></path>
        <path d="M504.5,296 C508.642136,296 512,299.475334 512,303.762376 C512,306.620404 509.5,313.366279 504.5,324 C499.5,313.366279 497,306.620404 497,303.762376 C497,299.475334 500.357864,296 504.5,296 Z M504.5,298.153846 C501.541332,298.153846 499.142857,300.564621 499.142857,303.538462 C499.142857,306.512302 501.541332,308.923077 504.5,308.923077 C507.458668,308.923077 509.857143,306.512302 509.857143,303.538462 C509.857143,300.564621 507.458668,298.153846 504.5,298.153846 Z" id="Oval-Copy-12" fill="#C71D7D"></path>
        <path d="M539.5,146 C543.642136,146 547,149.475334 547,153.762376 C547,156.620404 544.5,163.366279 539.5,174 C534.5,163.366279 532,156.620404 532,153.762376 C532,149.475334 535.357864,146 539.5,146 Z M539.5,148.153846 C536.541332,148.153846 534.142857,150.564621 534.142857,153.538462 C534.142857,156.512302 536.541332,158.923077 539.5,158.923077 C542.458668,158.923077 544.857143,156.512302 544.857143,153.538462 C544.857143,150.564621 542.458668,148.153846 539.5,148.153846 Z" id="Oval-Copy-6" fill="#C71D7D"></path>
        <path d="M165.5,202 C169.642136,202 173,205.475334 173,209.762376 C173,212.620404 170.5,219.366279 165.5,230 C160.5,219.366279 158,212.620404 158,209.762376 C158,205.475334 161.357864,202 165.5,202 Z M165.5,204.153846 C162.541332,204.153846 160.142857,206.564621 160.142857,209.538462 C160.142857,212.512302 162.541332,214.923077 165.5,214.923077 C168.458668,214.923077 170.857143,212.512302 170.857143,209.538462 C170.857143,206.564621 168.458668,204.153846 165.5,204.153846 Z" id="Oval-Copy-2" fill="#C71D7D"></path>
        <path d="M63.5,220 C67.6421356,220 71,223.475334 71,227.762376 C71,230.620404 68.5,237.366279 63.5,248 C58.5,237.366279 56,230.620404 56,227.762376 C56,223.475334 59.3578644,220 63.5,220 Z M63.5,222.153846 C60.5413317,222.153846 58.1428571,224.564621 58.1428571,227.538462 C58.1428571,230.512302 60.5413317,232.923077 63.5,232.923077 C66.4586683,232.923077 68.8571429,230.512302 68.8571429,227.538462 C68.8571429,224.564621 66.4586683,222.153846 63.5,222.153846 Z" id="Oval-Copy-4" fill="#C71D7D"></path>
        <path d="M116.5,226 C120.642136,226 124,229.475334 124,233.762376 C124,236.620404 121.5,243.366279 116.5,254 C111.5,243.366279 109,236.620404 109,233.762376 C109,229.475334 112.357864,226 116.5,226 Z M116.5,228.153846 C113.541332,228.153846 111.142857,230.564621 111.142857,233.538462 C111.142857,236.512302 113.541332,238.923077 116.5,238.923077 C119.458668,238.923077 121.857143,236.512302 121.857143,233.538462 C121.857143,230.564621 119.458668,228.153846 116.5,228.153846 Z" id="Oval-Copy-5" fill="#C71D7D"></path>
        <path d="M196.5,108 C200.642136,108 204,111.475334 204,115.762376 C204,118.620404 201.5,125.366279 196.5,136 C191.5,125.366279 189,118.620404 189,115.762376 C189,111.475334 192.357864,108 196.5,108 Z M196.5,110.153846 C193.541332,110.153846 191.142857,112.564621 191.142857,115.538462 C191.142857,118.512302 193.541332,120.923077 196.5,120.923077 C199.458668,120.923077 201.857143,118.512302 201.857143,115.538462 C201.857143,112.564621 199.458668,110.153846 196.5,110.153846 Z" id="Oval-Copy-3" fill="#C71D7D"></path>
        <path d="M239.5,174 C243.642136,174 247,177.475334 247,181.762376 C247,184.620404 244.5,191.366279 239.5,202 C234.5,191.366279 232,184.620404 232,181.762376 C232,177.475334 235.357864,174 239.5,174 Z M239.5,176.153846 C236.541332,176.153846 234.142857,178.564621 234.142857,181.538462 C234.142857,184.512302 236.541332,186.923077 239.5,186.923077 C242.458668,186.923077 244.857143,184.512302 244.857143,181.538462 C244.857143,178.564621 242.458668,176.153846 239.5,176.153846 Z" id="Oval-Copy-15" fill="#C71D7D"></path>
        <path d="M56.5,0 C60.6421356,0 64,3.47533422 64,7.76237624 C64,10.6204042 61.5,17.3662788 56.5,28 C51.5,17.3662788 49,10.6204042 49,7.76237624 C49,3.47533422 52.3578644,0 56.5,0 Z M56.5,2.15384615 C53.5413317,2.15384615 51.1428571,4.56462058 51.1428571,7.53846154 C51.1428571,10.5123025 53.5413317,12.9230769 56.5,12.9230769 C59.4586683,12.9230769 61.8571429,10.5123025 61.8571429,7.53846154 C61.8571429,4.56462058 59.4586683,2.15384615 56.5,2.15384615 Z" id="Oval-Copy-14" fill="#C71D7D"></path>
        <path d="M418.5,21 C422.642136,21 426,24.4753342 426,28.7623762 C426,31.6204042 423.5,38.3662788 418.5,49 C413.5,38.3662788 411,31.6204042 411,28.7623762 C411,24.4753342 414.357864,21 418.5,21 Z M418.5,23.1538462 C415.541332,23.1538462 413.142857,25.5646206 413.142857,28.5384615 C413.142857,31.5123025 415.541332,33.9230769 418.5,33.9230769 C421.458668,33.9230769 423.857143,31.5123025 423.857143,28.5384615 C423.857143,25.5646206 421.458668,23.1538462 418.5,23.1538462 Z" id="Oval-Copy-3" fill="#C71D7D"></path>
        <path d="M99.5,67 C103.642136,67 107,70.4753342 107,74.7623762 C107,77.6204042 104.5,84.3662788 99.5,95 C94.5,84.3662788 92,77.6204042 92,74.7623762 C92,70.4753342 95.3578644,67 99.5,67 Z M99.5,69.1538462 C96.5413317,69.1538462 94.1428571,71.5646206 94.1428571,74.5384615 C94.1428571,77.5123025 96.5413317,79.9230769 99.5,79.9230769 C102.458668,79.9230769 104.857143,77.5123025 104.857143,74.5384615 C104.857143,71.5646206 102.458668,69.1538462 99.5,69.1538462 Z" id="Oval-Copy-16" fill="#C71D7D"></path>
        <path d="M78.5,186 C82.6421356,186 86,189.475334 86,193.762376 C86,196.620404 83.5,203.366279 78.5,214 C73.5,203.366279 71,196.620404 71,193.762376 C71,189.475334 74.3578644,186 78.5,186 Z M78.5,188.153846 C75.5413317,188.153846 73.1428571,190.564621 73.1428571,193.538462 C73.1428571,196.512302 75.5413317,198.923077 78.5,198.923077 C81.4586683,198.923077 83.8571429,196.512302 83.8571429,193.538462 C83.8571429,190.564621 81.4586683,188.153846 78.5,188.153846 Z" id="Oval-Copy-2" fill="#C71D7D"></path>
    </g>
</svg>
